<svg width="52" height="52" viewBox="0 0 52 52" fill="none" xmlns="http://www.w3.org/2000/svg">
<mask id="path-1-outside-1_54_7" maskUnits="userSpaceOnUse" x="0" y="0" width="52" height="52" fill="black">
<rect fill="white" width="52" height="52"/>
<path d="M51 26C51 39.8071 39.8071 51 26 51C12.1929 51 1 39.8071 1 26C1 12.1929 12.1929 1 26 1C39.8071 1 51 12.1929 51 26Z"/>
<path d="M13.4493 12.6699C13.208 12.9111 12.9634 13.0805 12.7153 13.1779C12.4641 13.2722 12.2206 13.296 11.9848 13.2493C11.7459 13.1995 11.5276 13.0757 11.3299 12.878L11.853 12.3548C12.01 12.5117 12.191 12.5786 12.3961 12.5555C12.5981 12.5293 12.8001 12.4152 13.0022 12.2131C13.1913 12.024 13.2956 11.8318 13.3153 11.6363C13.335 11.4409 13.268 11.2662 13.1142 11.1125C12.9855 10.9838 12.8366 10.9098 12.6675 10.8907C12.5016 10.8682 12.333 10.9082 12.1615 11.0106L11.5846 11.3333C11.2516 11.5219 10.9271 11.6016 10.6111 11.5724C10.2951 11.5368 10.0163 11.3982 9.77468 11.1565C9.58637 10.9682 9.4656 10.7594 9.41238 10.5302C9.35916 10.3009 9.37481 10.0656 9.45933 9.82415C9.54386 9.5827 9.69695 9.35115 9.91861 9.12949C10.2446 8.80352 10.5901 8.62748 10.9552 8.60138C11.3235 8.57201 11.6521 8.69851 11.9409 8.98085L11.4129 9.50892C11.2622 9.35828 11.094 9.29111 10.9082 9.30742C10.7225 9.31733 10.5401 9.41193 10.3608 9.59121C10.188 9.76398 10.0935 9.94006 10.0773 10.1195C10.058 10.2957 10.1205 10.456 10.2649 10.6004C10.3936 10.7291 10.5409 10.8046 10.7067 10.8271C10.8759 10.8463 11.0477 10.8062 11.2223 10.707L11.8088 10.3841C12.1386 10.1923 12.4615 10.1143 12.7774 10.1499C13.0934 10.1854 13.3737 10.3256 13.6185 10.5704C13.81 10.7619 13.9322 10.9786 13.9852 11.2207C14.035 11.4596 14.016 11.7046 13.9281 11.9557C13.837 12.2037 13.6774 12.4417 13.4493 12.6699Z"/>
<path d="M16.8521 10.1938L14.6941 6.45606L13.592 7.09236L13.25 6.5L16.0646 4.875L16.4066 5.46736L15.3045 6.10365L17.4625 9.84142L16.8521 10.1938Z"/>
<path d="M19.0441 8.79579L18.886 3.66177L19.7533 3.42939L22.1834 7.95463L21.5176 8.13301L20.9209 6.98107L19.6567 7.31982L19.7159 8.61578L19.0441 8.79579ZM19.6211 6.69828L20.6349 6.42662L19.9555 5.11248C19.8364 4.87967 19.7343 4.67776 19.6492 4.50674C19.567 4.33022 19.5109 4.21052 19.4809 4.14763C19.4865 4.21706 19.4977 4.34877 19.5148 4.54274C19.5307 4.73231 19.5426 4.95602 19.5506 5.21387L19.6211 6.69828Z"/>
<path d="M24.375 7.625V2.625H25.2986L25.8056 4.22774C25.8565 4.37842 25.9005 4.52454 25.9375 4.6661C25.9745 4.80308 26 4.90582 26.0139 4.97431C26.0324 4.90582 26.0579 4.80308 26.0903 4.6661C26.1273 4.52454 26.169 4.37842 26.2153 4.22774L26.7014 2.625H27.625V7.625H26.9167V5.94007C26.9167 5.72546 26.9213 5.48801 26.9306 5.22774C26.9444 4.9629 26.963 4.69806 26.9861 4.43322C27.0093 4.16381 27.0324 3.90811 27.0556 3.6661C27.0787 3.41952 27.0995 3.20491 27.1181 3.02226L26.3681 5.45377H25.6458L24.8819 3.02226C24.9051 3.20034 24.9282 3.40811 24.9514 3.64555C24.9745 3.87842 24.9954 4.12728 25.0139 4.39212C25.0324 4.65696 25.0486 4.92409 25.0625 5.19349C25.0764 5.45833 25.0833 5.70719 25.0833 5.94007V7.625H24.375Z"/>
<path d="M29.875 8.07963L31.1691 3.25L32.7587 3.67593C33.0735 3.76028 33.3302 3.89289 33.5289 4.07376C33.732 4.25581 33.8661 4.47374 33.9311 4.72754C34.0018 4.97811 33.9975 5.25115 33.9184 5.54667C33.8404 5.83777 33.7075 6.07636 33.5198 6.26243C33.3322 6.44851 33.1071 6.5702 32.8446 6.62751C32.5821 6.68481 32.2935 6.67129 31.9787 6.58694L31.1074 6.35348L30.5933 8.2721L29.875 8.07963ZM31.2794 5.71173L32.1506 5.94519C32.3989 6.01172 32.6157 5.99182 32.8011 5.88547C32.992 5.77591 33.1206 5.59763 33.1867 5.35063C33.2541 5.09923 33.2319 4.88055 33.1202 4.69461C33.0128 4.50985 32.835 4.38421 32.5867 4.31767L31.7154 4.08421L31.2794 5.71173Z"/>
<path d="M34 9.45513L36.5 5.125L39.3146 6.75L38.9858 7.31944L36.8667 6.09596L36.1578 7.32381L38.0473 8.41472L37.7219 8.97823L35.8324 7.88732L35.0242 9.2872L37.1433 10.5107L36.8146 11.0801L34 9.45513Z"/>
<path d="M38.125 12.1605L41.6605 8.625L42.7874 9.7519C43.0138 9.97827 43.1671 10.2187 43.2472 10.4732C43.3306 10.7245 43.3407 10.9735 43.2776 11.2203C43.2177 11.4705 43.0829 11.7005 42.873 11.9103C42.6373 12.146 42.3699 12.2887 42.0709 12.3384C41.7784 12.3882 41.4916 12.3436 41.2106 12.2046L40.4231 14.4586L39.8178 13.8534L40.6163 11.7459L40.1094 11.239L38.6565 12.692L38.125 12.1605ZM40.5695 10.7789L41.165 11.3744C41.3421 11.5515 41.5349 11.6409 41.7432 11.6426C41.9547 11.641 42.1476 11.5531 42.322 11.3787C42.5028 11.1979 42.5924 11.0033 42.5907 10.795C42.5891 10.5867 42.4996 10.394 42.3225 10.2169L41.7271 9.62141L40.5695 10.7789Z"/>
<path d="M9.91372 42.8242C9.6725 42.583 9.50317 42.3384 9.40573 42.0903C9.31143 41.8391 9.28763 41.5956 9.33433 41.3598C9.38417 41.1209 9.50795 40.9026 9.70568 40.7049L10.2289 41.228C10.0719 41.385 10.005 41.566 10.0281 41.7711C10.0543 41.9731 10.1685 42.1751 10.3706 42.3772C10.5596 42.5663 10.7519 42.6706 10.9473 42.6903C11.1428 42.71 11.3174 42.643 11.4712 42.4892C11.5999 42.3605 11.6738 42.2116 11.693 42.0425C11.7154 41.8766 11.6754 41.708 11.5731 41.5365L11.2503 40.9596C11.0617 40.6266 10.982 40.3021 11.0112 39.9861C11.0468 39.6701 11.1854 39.3913 11.4271 39.1497C11.6154 38.9614 11.8242 38.8406 12.0534 38.7874C12.2827 38.7342 12.518 38.7498 12.7595 38.8343C13.0009 38.9189 13.2325 39.0719 13.4541 39.2936C13.7801 39.6196 13.9562 39.9651 13.9823 40.3302C14.0116 40.6985 13.8851 41.0271 13.6028 41.3159L13.0747 40.7879C13.2254 40.6372 13.2925 40.469 13.2762 40.2832C13.2663 40.0975 13.1717 39.9151 12.9924 39.7358C12.8197 39.563 12.6436 39.4685 12.4642 39.4523C12.2879 39.433 12.1276 39.4955 11.9832 39.6399C11.8546 39.7686 11.779 39.9159 11.7566 40.0817C11.7374 40.2509 11.7774 40.4227 11.8767 40.5973L12.1996 41.1838C12.3913 41.5136 12.4694 41.8365 12.4338 42.1524C12.3982 42.4684 12.258 42.7487 12.0132 42.9935C11.8217 43.185 11.605 43.3072 11.363 43.3602C11.1241 43.41 10.879 43.391 10.6279 43.3031C10.38 43.212 10.1419 43.0524 9.91372 42.8242Z"/>
<path d="M13.9073 45.8926C13.6173 45.7252 13.3935 45.5318 13.2358 45.3125C13.0846 45.0918 13.0048 44.8558 12.9963 44.6046C12.9943 44.352 13.0656 44.1006 13.21 43.8504L14.29 41.9798C14.4367 41.7257 14.6188 41.5383 14.8363 41.4176C15.0581 41.2993 15.3013 41.2524 15.5658 41.2768C15.8368 41.2998 16.1173 41.3951 16.4073 41.5625C16.6973 41.7299 16.9179 41.924 17.069 42.1447C17.2267 42.364 17.3077 42.5981 17.3119 42.8469C17.3203 43.0981 17.2524 43.3488 17.1079 43.599L16.0246 45.4754C15.8801 45.7256 15.6959 45.9117 15.4719 46.0338C15.2543 46.1546 15.0101 46.2034 14.739 46.1804C14.4745 46.156 14.1973 46.0601 13.9073 45.8926ZM14.2273 45.3384C14.4618 45.4738 14.6722 45.5182 14.8582 45.4717C15.0508 45.4238 15.2093 45.2921 15.3337 45.0765L16.4137 43.2059C16.5404 42.9865 16.5752 42.7834 16.5182 42.5965C16.4655 42.4121 16.3218 42.2522 16.0873 42.1168C15.857 41.9838 15.6467 41.9394 15.4564 41.9834C15.266 42.0275 15.1075 42.1592 14.9809 42.3786L13.9009 44.2492C13.7764 44.4648 13.7416 44.6679 13.7964 44.8586C13.8534 45.0455 13.997 45.2054 14.2273 45.3384Z"/>
<path d="M17.125 47.5796L18.4191 42.75L21.5584 43.5912L21.3813 44.2519L18.9895 43.611L18.6036 45.0513L20.8103 45.6426L20.6333 46.3032L18.4408 45.7158L17.8867 47.7837L17.125 47.5796Z"/>
<path d="M22.9655 48.954L23.3416 44.6544L22.0739 44.5435L22.1335 43.8621L25.3711 44.1453L25.3115 44.8267L24.0438 44.7158L23.6676 49.0154L22.9655 48.954Z"/>
<path d="M27.6824 49.092L26.7883 44.1511L27.3511 44.1019L27.9482 47.6524C27.9639 47.7427 27.9785 47.8423 27.9919 47.9511C28.0092 48.0596 28.0243 48.166 28.0373 48.2703C28.0542 48.3742 28.0661 48.4649 28.0728 48.5422C28.0738 48.4642 28.0736 48.3725 28.0722 48.2672C28.0707 48.1619 28.0691 48.0544 28.0673 47.9445C28.0694 47.8343 28.0722 47.7332 28.0759 47.6412L28.1286 44.0339L28.7088 43.9831L29.364 47.5285C29.3796 47.6188 29.3961 47.7182 29.4134 47.8267C29.4346 47.9349 29.4555 48.0408 29.4763 48.1444C29.4971 48.248 29.5128 48.3383 29.5234 48.4153C29.5205 48.3376 29.5164 48.2463 29.5111 48.1413C29.5097 48.036 29.5081 47.9285 29.5063 47.8186C29.5044 47.7088 29.5034 47.608 29.5032 47.5164L29.4805 43.9156L30.0259 43.8679L29.9859 48.8905L29.2606 48.9539L28.6013 45.3607C28.5852 45.2659 28.5687 45.1665 28.5518 45.0625C28.5346 44.9541 28.5177 44.8501 28.5012 44.7507C28.4843 44.6468 28.469 44.561 28.4553 44.4935C28.4574 44.562 28.4591 44.649 28.4606 44.7543C28.4616 44.855 28.463 44.9603 28.4648 45.0702C28.4662 45.1755 28.4653 45.2764 28.4621 45.3729L28.4135 49.0281L27.6824 49.092Z"/>
<path d="M31.5441 48.4208L31.386 43.2868L32.2533 43.0544L34.6834 47.5796L34.0176 47.758L33.4209 46.6061L32.1567 46.9448L32.2159 48.2408L31.5441 48.4208ZM32.1211 46.3233L33.1349 46.0516L32.4555 44.7375C32.3364 44.5047 32.2343 44.3028 32.1492 44.1317C32.067 43.9552 32.0109 43.8355 31.9809 43.7726C31.9865 43.8421 31.9977 43.9738 32.0148 44.1677C32.0307 44.3573 32.0426 44.581 32.0506 44.8389L32.1211 46.3233Z"/>
<path d="M36.375 46.8301L33.875 42.5L35.2552 41.7032C35.5324 41.5431 35.8043 41.4573 36.0709 41.4458C36.3351 41.4303 36.5783 41.4849 36.8004 41.6098C37.0265 41.7323 37.2138 41.9221 37.3622 42.1792C37.5289 42.4679 37.5975 42.763 37.5681 43.0647C37.5404 43.3601 37.4231 43.6256 37.2162 43.861L39.1896 45.2051L38.4483 45.6331L36.6193 44.3164L35.9985 44.6748L37.0259 46.4543L36.375 46.8301ZM35.6732 44.1113L36.4024 43.6903C36.6194 43.565 36.7556 43.402 36.8112 43.2012C36.8644 42.9965 36.8294 42.7873 36.7061 42.5738C36.5782 42.3524 36.4135 42.2155 36.2118 42.1632C36.0102 42.1109 35.8009 42.1473 35.5839 42.2726L34.8547 42.6936L35.6732 44.1113Z"/>
<path d="M40.9105 43.9586L37.375 40.4231L39.6731 38.125L40.138 38.5899L38.4078 40.3202L39.4103 41.3228L40.9531 39.78L41.4132 40.2401L39.8704 41.7829L41.0134 42.9259L42.7437 41.1956L43.2086 41.6605L40.9105 43.9586Z"/>
<path d="M21.1303 29.2598C20.5558 29.2598 19.9486 29.1821 19.3085 29.0266C18.6848 28.8853 18.1268 28.645 17.6344 28.3058C17.1584 27.9666 16.8384 27.5144 16.6742 26.9491C16.6578 26.8784 16.6414 26.8007 16.625 26.7159C16.625 26.6311 16.625 26.5463 16.625 26.4615C16.625 26.0234 16.7399 25.5994 16.9697 25.1895C17.1994 24.7797 17.4785 24.4688 17.8067 24.2568H17.8313C17.8642 24.2568 17.9052 24.2921 17.9544 24.3628C18.0201 24.4193 18.0201 24.4617 17.9544 24.49C17.7903 24.6313 17.6672 24.7938 17.5851 24.9775C17.5195 25.1471 17.4867 25.3309 17.4867 25.5287C17.4867 25.7972 17.5359 26.0728 17.6344 26.3555C17.7493 26.624 17.8888 26.8572 18.0529 27.0551C18.4632 27.5497 19.0295 27.9454 19.7516 28.2422C20.4902 28.5249 21.2123 28.6662 21.9181 28.6662C22.8864 28.6662 23.6332 28.4189 24.1584 27.9242C24.7 27.4296 24.9708 26.8219 24.9708 26.1011C24.9708 25.663 24.8724 25.2249 24.6754 24.7867C24.4128 24.179 24.0599 23.5854 23.6168 23.006C23.1901 22.4124 22.7962 21.833 22.4351 21.2677C22.1232 20.7589 21.9673 20.243 21.9673 19.7201C21.9673 19.1689 22.1643 18.6389 22.5582 18.1302C22.9521 17.6779 23.4691 17.3175 24.1092 17.049C24.7657 16.7663 25.4304 16.625 26.1033 16.625C26.5629 16.625 27.006 16.6957 27.4327 16.837C27.8595 16.9783 28.2452 17.2115 28.5898 17.5366C28.6883 17.6638 28.7375 17.8263 28.7375 18.0242C28.7375 18.3068 28.6719 18.5259 28.5406 18.6813C28.3929 18.8651 28.2287 19.1053 28.0482 19.4021C27.8677 19.6989 27.761 19.9038 27.7282 20.0169C27.6953 20.031 27.6133 20.0593 27.482 20.1017C27.3671 20.13 27.2932 20.1229 27.2604 20.0805C27.326 19.9674 27.4163 19.7625 27.5312 19.4657C27.6461 19.1689 27.7035 18.9004 27.7035 18.6601C27.7035 18.5047 27.6953 18.3351 27.6789 18.1514C27.6789 17.9535 27.5722 17.7839 27.3589 17.6426C27.1619 17.4871 26.9075 17.3528 26.5957 17.2398C26.2838 17.1267 25.9064 17.0702 25.4632 17.0702C24.5605 17.0702 23.8712 17.2963 23.3952 17.7486C22.9193 18.2008 22.6813 18.6955 22.6813 19.2325C22.6813 19.501 22.7469 19.7696 22.8782 20.0381C23.1244 20.5469 23.4691 21.0274 23.9122 21.4796C24.3554 21.9319 24.7903 22.3983 25.217 22.8788C25.6602 23.3452 26.0048 23.854 26.251 24.4052C26.4151 24.7726 26.4972 25.1471 26.4972 25.5287C26.4972 26.0799 26.3331 26.5816 26.0048 27.0339C25.693 27.4861 25.2663 27.8818 24.7246 28.221C24.1994 28.5461 23.625 28.8005 23.0013 28.9842C22.3776 29.1679 21.754 29.2598 21.1303 29.2598Z"/>
<path d="M27.7677 35.375C27.1933 35.375 26.586 35.2973 25.9459 35.1418C25.3223 35.0005 24.7642 34.7602 24.2718 34.421C23.7959 34.0818 23.4758 33.6296 23.3117 33.0643C23.2953 32.9936 23.2789 32.9159 23.2625 32.8311C23.2625 32.7463 23.2625 32.6615 23.2625 32.5767C23.2625 32.1386 23.3774 31.7146 23.6071 31.3047C23.8369 30.8949 24.1159 30.5839 24.4442 30.372H24.4688C24.5016 30.372 24.5427 30.4073 24.5919 30.478C24.6575 30.5345 24.6575 30.5769 24.5919 30.6051C24.4278 30.7465 24.3047 30.909 24.2226 31.0927C24.157 31.2623 24.1241 31.4461 24.1241 31.6439C24.1241 31.9124 24.1734 32.188 24.2718 32.4707C24.3867 32.7392 24.5262 32.9724 24.6904 33.1703C25.1007 33.6649 25.6669 34.0606 26.3891 34.3574C27.1276 34.6401 27.8498 34.7814 28.5555 34.7814C29.5239 34.7814 30.2707 34.5341 30.7959 34.0394C31.3375 33.5448 31.6083 32.9371 31.6083 32.2163C31.6083 31.7782 31.5098 31.3401 31.3129 30.9019C31.0503 30.2942 30.6974 29.7006 30.2543 29.1212C29.8275 28.5276 29.4336 27.9482 29.0725 27.3828C28.7607 26.8741 28.6048 26.3582 28.6048 25.8353C28.6048 25.2841 28.8017 24.7541 29.1956 24.2453C29.5895 23.7931 30.1065 23.4327 30.7466 23.1642C31.4031 22.8815 32.0679 22.7402 32.7408 22.7402C33.2003 22.7402 33.6435 22.8109 34.0702 22.9522C34.4969 23.0935 34.8826 23.3267 35.2273 23.6518C35.3258 23.779 35.375 23.9415 35.375 24.1394C35.375 24.422 35.3093 24.6411 35.178 24.7965C35.0303 24.9803 34.8662 25.2205 34.6857 25.5173C34.5051 25.8141 34.3984 26.019 34.3656 26.1321C34.3328 26.1462 34.2507 26.1745 34.1194 26.2169C34.0045 26.2452 33.9307 26.2381 33.8979 26.1957C33.9635 26.0826 34.0538 25.8777 34.1687 25.5809C34.2836 25.2841 34.341 25.0156 34.341 24.7753C34.341 24.6199 34.3328 24.4503 34.3164 24.2665C34.3164 24.0687 34.2097 23.8991 33.9963 23.7578C33.7994 23.6023 33.545 23.468 33.2332 23.355C32.9213 23.2419 32.5438 23.1854 32.1007 23.1854C31.198 23.1854 30.5087 23.4115 30.0327 23.8638C29.5567 24.316 29.3187 24.8107 29.3187 25.3477C29.3187 25.6162 29.3844 25.8848 29.5157 26.1533C29.7619 26.6621 30.1065 27.1426 30.5497 27.5948C30.9928 28.0471 31.4278 28.5135 31.8545 28.994C32.2976 29.4604 32.6423 29.9692 32.8885 30.5204C33.0526 30.8878 33.1347 31.2623 33.1347 31.6439C33.1347 32.1951 32.9705 32.6968 32.6423 33.1491C32.3305 33.6013 31.9037 33.997 31.3621 34.3362C30.8369 34.6613 30.2625 34.9157 29.6388 35.0994C29.0151 35.2831 28.3914 35.375 27.7677 35.375Z"/>
</mask>
<path d="M51 26C51 39.8071 39.8071 51 26 51C12.1929 51 1 39.8071 1 26C1 12.1929 12.1929 1 26 1C39.8071 1 51 12.1929 51 26Z" fill="#252423"/>
<path d="M13.4493 12.6699C13.208 12.9111 12.9634 13.0805 12.7153 13.1779C12.4641 13.2722 12.2206 13.296 11.9848 13.2493C11.7459 13.1995 11.5276 13.0757 11.3299 12.878L11.853 12.3548C12.01 12.5117 12.191 12.5786 12.3961 12.5555C12.5981 12.5293 12.8001 12.4152 13.0022 12.2131C13.1913 12.024 13.2956 11.8318 13.3153 11.6363C13.335 11.4409 13.268 11.2662 13.1142 11.1125C12.9855 10.9838 12.8366 10.9098 12.6675 10.8907C12.5016 10.8682 12.333 10.9082 12.1615 11.0106L11.5846 11.3333C11.2516 11.5219 10.9271 11.6016 10.6111 11.5724C10.2951 11.5368 10.0163 11.3982 9.77468 11.1565C9.58637 10.9682 9.4656 10.7594 9.41238 10.5302C9.35916 10.3009 9.37481 10.0656 9.45933 9.82415C9.54386 9.5827 9.69695 9.35115 9.91861 9.12949C10.2446 8.80352 10.5901 8.62748 10.9552 8.60138C11.3235 8.57201 11.6521 8.69851 11.9409 8.98085L11.4129 9.50892C11.2622 9.35828 11.094 9.29111 10.9082 9.30742C10.7225 9.31733 10.5401 9.41193 10.3608 9.59121C10.188 9.76398 10.0935 9.94006 10.0773 10.1195C10.058 10.2957 10.1205 10.456 10.2649 10.6004C10.3936 10.7291 10.5409 10.8046 10.7067 10.8271C10.8759 10.8463 11.0477 10.8062 11.2223 10.707L11.8088 10.3841C12.1386 10.1923 12.4615 10.1143 12.7774 10.1499C13.0934 10.1854 13.3737 10.3256 13.6185 10.5704C13.81 10.7619 13.9322 10.9786 13.9852 11.2207C14.035 11.4596 14.016 11.7046 13.9281 11.9557C13.837 12.2037 13.6774 12.4417 13.4493 12.6699Z" fill="#C2983D"/>
<path d="M16.8521 10.1938L14.6941 6.45606L13.592 7.09236L13.25 6.5L16.0646 4.875L16.4066 5.46736L15.3045 6.10365L17.4625 9.84142L16.8521 10.1938Z" fill="#C2983D"/>
<path d="M19.0441 8.79579L18.886 3.66177L19.7533 3.42939L22.1834 7.95463L21.5176 8.13301L20.9209 6.98107L19.6567 7.31982L19.7159 8.61578L19.0441 8.79579ZM19.6211 6.69828L20.6349 6.42662L19.9555 5.11248C19.8364 4.87967 19.7343 4.67776 19.6492 4.50674C19.567 4.33022 19.5109 4.21052 19.4809 4.14763C19.4865 4.21706 19.4977 4.34877 19.5148 4.54274C19.5307 4.73231 19.5426 4.95602 19.5506 5.21387L19.6211 6.69828Z" fill="#C2983D"/>
<path d="M24.375 7.625V2.625H25.2986L25.8056 4.22774C25.8565 4.37842 25.9005 4.52454 25.9375 4.6661C25.9745 4.80308 26 4.90582 26.0139 4.97431C26.0324 4.90582 26.0579 4.80308 26.0903 4.6661C26.1273 4.52454 26.169 4.37842 26.2153 4.22774L26.7014 2.625H27.625V7.625H26.9167V5.94007C26.9167 5.72546 26.9213 5.48801 26.9306 5.22774C26.9444 4.9629 26.963 4.69806 26.9861 4.43322C27.0093 4.16381 27.0324 3.90811 27.0556 3.6661C27.0787 3.41952 27.0995 3.20491 27.1181 3.02226L26.3681 5.45377H25.6458L24.8819 3.02226C24.9051 3.20034 24.9282 3.40811 24.9514 3.64555C24.9745 3.87842 24.9954 4.12728 25.0139 4.39212C25.0324 4.65696 25.0486 4.92409 25.0625 5.19349C25.0764 5.45833 25.0833 5.70719 25.0833 5.94007V7.625H24.375Z" fill="#C2983D"/>
<path d="M29.875 8.07963L31.1691 3.25L32.7587 3.67593C33.0735 3.76028 33.3302 3.89289 33.5289 4.07376C33.732 4.25581 33.8661 4.47374 33.9311 4.72754C34.0018 4.97811 33.9975 5.25115 33.9184 5.54667C33.8404 5.83777 33.7075 6.07636 33.5198 6.26243C33.3322 6.44851 33.1071 6.5702 32.8446 6.62751C32.5821 6.68481 32.2935 6.67129 31.9787 6.58694L31.1074 6.35348L30.5933 8.2721L29.875 8.07963ZM31.2794 5.71173L32.1506 5.94519C32.3989 6.01172 32.6157 5.99182 32.8011 5.88547C32.992 5.77591 33.1206 5.59763 33.1867 5.35063C33.2541 5.09923 33.2319 4.88055 33.1202 4.69461C33.0128 4.50985 32.835 4.38421 32.5867 4.31767L31.7154 4.08421L31.2794 5.71173Z" fill="#C2983D"/>
<path d="M34 9.45513L36.5 5.125L39.3146 6.75L38.9858 7.31944L36.8667 6.09596L36.1578 7.32381L38.0473 8.41472L37.7219 8.97823L35.8324 7.88732L35.0242 9.2872L37.1433 10.5107L36.8146 11.0801L34 9.45513Z" fill="#C2983D"/>
<path d="M38.125 12.1605L41.6605 8.625L42.7874 9.7519C43.0138 9.97827 43.1671 10.2187 43.2472 10.4732C43.3306 10.7245 43.3407 10.9735 43.2776 11.2203C43.2177 11.4705 43.0829 11.7005 42.873 11.9103C42.6373 12.146 42.3699 12.2887 42.0709 12.3384C41.7784 12.3882 41.4916 12.3436 41.2106 12.2046L40.4231 14.4586L39.8178 13.8534L40.6163 11.7459L40.1094 11.239L38.6565 12.692L38.125 12.1605ZM40.5695 10.7789L41.165 11.3744C41.3421 11.5515 41.5349 11.6409 41.7432 11.6426C41.9547 11.641 42.1476 11.5531 42.322 11.3787C42.5028 11.1979 42.5924 11.0033 42.5907 10.795C42.5891 10.5867 42.4996 10.394 42.3225 10.2169L41.7271 9.62141L40.5695 10.7789Z" fill="#C2983D"/>
<path d="M9.91372 42.8242C9.6725 42.583 9.50317 42.3384 9.40573 42.0903C9.31143 41.8391 9.28763 41.5956 9.33433 41.3598C9.38417 41.1209 9.50795 40.9026 9.70568 40.7049L10.2289 41.228C10.0719 41.385 10.005 41.566 10.0281 41.7711C10.0543 41.9731 10.1685 42.1751 10.3706 42.3772C10.5596 42.5663 10.7519 42.6706 10.9473 42.6903C11.1428 42.71 11.3174 42.643 11.4712 42.4892C11.5999 42.3605 11.6738 42.2116 11.693 42.0425C11.7154 41.8766 11.6754 41.708 11.5731 41.5365L11.2503 40.9596C11.0617 40.6266 10.982 40.3021 11.0112 39.9861C11.0468 39.6701 11.1854 39.3913 11.4271 39.1497C11.6154 38.9614 11.8242 38.8406 12.0534 38.7874C12.2827 38.7342 12.518 38.7498 12.7595 38.8343C13.0009 38.9189 13.2325 39.0719 13.4541 39.2936C13.7801 39.6196 13.9562 39.9651 13.9823 40.3302C14.0116 40.6985 13.8851 41.0271 13.6028 41.3159L13.0747 40.7879C13.2254 40.6372 13.2925 40.469 13.2762 40.2832C13.2663 40.0975 13.1717 39.9151 12.9924 39.7358C12.8197 39.563 12.6436 39.4685 12.4642 39.4523C12.2879 39.433 12.1276 39.4955 11.9832 39.6399C11.8546 39.7686 11.779 39.9159 11.7566 40.0817C11.7374 40.2509 11.7774 40.4227 11.8767 40.5973L12.1996 41.1838C12.3913 41.5136 12.4694 41.8365 12.4338 42.1524C12.3982 42.4684 12.258 42.7487 12.0132 42.9935C11.8217 43.185 11.605 43.3072 11.363 43.3602C11.1241 43.41 10.879 43.391 10.6279 43.3031C10.38 43.212 10.1419 43.0524 9.91372 42.8242Z" fill="#C2983D"/>
<path d="M13.9073 45.8926C13.6173 45.7252 13.3935 45.5318 13.2358 45.3125C13.0846 45.0918 13.0048 44.8558 12.9963 44.6046C12.9943 44.352 13.0656 44.1006 13.21 43.8504L14.29 41.9798C14.4367 41.7257 14.6188 41.5383 14.8363 41.4176C15.0581 41.2993 15.3013 41.2524 15.5658 41.2768C15.8368 41.2998 16.1173 41.3951 16.4073 41.5625C16.6973 41.7299 16.9179 41.924 17.069 42.1447C17.2267 42.364 17.3077 42.5981 17.3119 42.8469C17.3203 43.0981 17.2524 43.3488 17.1079 43.599L16.0246 45.4754C15.8801 45.7256 15.6959 45.9117 15.4719 46.0338C15.2543 46.1546 15.0101 46.2034 14.739 46.1804C14.4745 46.156 14.1973 46.0601 13.9073 45.8926ZM14.2273 45.3384C14.4618 45.4738 14.6722 45.5182 14.8582 45.4717C15.0508 45.4238 15.2093 45.2921 15.3337 45.0765L16.4137 43.2059C16.5404 42.9865 16.5752 42.7834 16.5182 42.5965C16.4655 42.4121 16.3218 42.2522 16.0873 42.1168C15.857 41.9838 15.6467 41.9394 15.4564 41.9834C15.266 42.0275 15.1075 42.1592 14.9809 42.3786L13.9009 44.2492C13.7764 44.4648 13.7416 44.6679 13.7964 44.8586C13.8534 45.0455 13.997 45.2054 14.2273 45.3384Z" fill="#C2983D"/>
<path d="M17.125 47.5796L18.4191 42.75L21.5584 43.5912L21.3813 44.2519L18.9895 43.611L18.6036 45.0513L20.8103 45.6426L20.6333 46.3032L18.4408 45.7158L17.8867 47.7837L17.125 47.5796Z" fill="#C2983D"/>
<path d="M22.9655 48.954L23.3416 44.6544L22.0739 44.5435L22.1335 43.8621L25.3711 44.1453L25.3115 44.8267L24.0438 44.7158L23.6676 49.0154L22.9655 48.954Z" fill="#C2983D"/>
<path d="M27.6824 49.092L26.7883 44.1511L27.3511 44.1019L27.9482 47.6524C27.9639 47.7427 27.9785 47.8423 27.9919 47.9511C28.0092 48.0596 28.0243 48.166 28.0373 48.2703C28.0542 48.3742 28.0661 48.4649 28.0728 48.5422C28.0738 48.4642 28.0736 48.3725 28.0722 48.2672C28.0707 48.1619 28.0691 48.0544 28.0673 47.9445C28.0694 47.8343 28.0722 47.7332 28.0759 47.6412L28.1286 44.0339L28.7088 43.9831L29.364 47.5285C29.3796 47.6188 29.3961 47.7182 29.4134 47.8267C29.4346 47.9349 29.4555 48.0408 29.4763 48.1444C29.4971 48.248 29.5128 48.3383 29.5234 48.4153C29.5205 48.3376 29.5164 48.2463 29.5111 48.1413C29.5097 48.036 29.5081 47.9285 29.5063 47.8186C29.5044 47.7088 29.5034 47.608 29.5032 47.5164L29.4805 43.9156L30.0259 43.8679L29.9859 48.8905L29.2606 48.9539L28.6013 45.3607C28.5852 45.2659 28.5687 45.1665 28.5518 45.0625C28.5346 44.9541 28.5177 44.8501 28.5012 44.7507C28.4843 44.6468 28.469 44.561 28.4553 44.4935C28.4574 44.562 28.4591 44.649 28.4606 44.7543C28.4616 44.855 28.463 44.9603 28.4648 45.0702C28.4662 45.1755 28.4653 45.2764 28.4621 45.3729L28.4135 49.0281L27.6824 49.092Z" fill="#C2983D"/>
<path d="M31.5441 48.4208L31.386 43.2868L32.2533 43.0544L34.6834 47.5796L34.0176 47.758L33.4209 46.6061L32.1567 46.9448L32.2159 48.2408L31.5441 48.4208ZM32.1211 46.3233L33.1349 46.0516L32.4555 44.7375C32.3364 44.5047 32.2343 44.3028 32.1492 44.1317C32.067 43.9552 32.0109 43.8355 31.9809 43.7726C31.9865 43.8421 31.9977 43.9738 32.0148 44.1677C32.0307 44.3573 32.0426 44.581 32.0506 44.8389L32.1211 46.3233Z" fill="#C2983D"/>
<path d="M36.375 46.8301L33.875 42.5L35.2552 41.7032C35.5324 41.5431 35.8043 41.4573 36.0709 41.4458C36.3351 41.4303 36.5783 41.4849 36.8004 41.6098C37.0265 41.7323 37.2138 41.9221 37.3622 42.1792C37.5289 42.4679 37.5975 42.763 37.5681 43.0647C37.5404 43.3601 37.4231 43.6256 37.2162 43.861L39.1896 45.2051L38.4483 45.6331L36.6193 44.3164L35.9985 44.6748L37.0259 46.4543L36.375 46.8301ZM35.6732 44.1113L36.4024 43.6903C36.6194 43.565 36.7556 43.402 36.8112 43.2012C36.8644 42.9965 36.8294 42.7873 36.7061 42.5738C36.5782 42.3524 36.4135 42.2155 36.2118 42.1632C36.0102 42.1109 35.8009 42.1473 35.5839 42.2726L34.8547 42.6936L35.6732 44.1113Z" fill="#C2983D"/>
<path d="M40.9105 43.9586L37.375 40.4231L39.6731 38.125L40.138 38.5899L38.4078 40.3202L39.4103 41.3228L40.9531 39.78L41.4132 40.2401L39.8704 41.7829L41.0134 42.9259L42.7437 41.1956L43.2086 41.6605L40.9105 43.9586Z" fill="#C2983D"/>
<path d="M21.1303 29.2598C20.5558 29.2598 19.9486 29.1821 19.3085 29.0266C18.6848 28.8853 18.1268 28.645 17.6344 28.3058C17.1584 27.9666 16.8384 27.5144 16.6742 26.9491C16.6578 26.8784 16.6414 26.8007 16.625 26.7159C16.625 26.6311 16.625 26.5463 16.625 26.4615C16.625 26.0234 16.7399 25.5994 16.9697 25.1895C17.1994 24.7797 17.4785 24.4688 17.8067 24.2568H17.8313C17.8642 24.2568 17.9052 24.2921 17.9544 24.3628C18.0201 24.4193 18.0201 24.4617 17.9544 24.49C17.7903 24.6313 17.6672 24.7938 17.5851 24.9775C17.5195 25.1471 17.4867 25.3309 17.4867 25.5287C17.4867 25.7972 17.5359 26.0728 17.6344 26.3555C17.7493 26.624 17.8888 26.8572 18.0529 27.0551C18.4632 27.5497 19.0295 27.9454 19.7516 28.2422C20.4902 28.5249 21.2123 28.6662 21.9181 28.6662C22.8864 28.6662 23.6332 28.4189 24.1584 27.9242C24.7 27.4296 24.9708 26.8219 24.9708 26.1011C24.9708 25.663 24.8724 25.2249 24.6754 24.7867C24.4128 24.179 24.0599 23.5854 23.6168 23.006C23.1901 22.4124 22.7962 21.833 22.4351 21.2677C22.1232 20.7589 21.9673 20.243 21.9673 19.7201C21.9673 19.1689 22.1643 18.6389 22.5582 18.1302C22.9521 17.6779 23.4691 17.3175 24.1092 17.049C24.7657 16.7663 25.4304 16.625 26.1033 16.625C26.5629 16.625 27.006 16.6957 27.4327 16.837C27.8595 16.9783 28.2452 17.2115 28.5898 17.5366C28.6883 17.6638 28.7375 17.8263 28.7375 18.0242C28.7375 18.3068 28.6719 18.5259 28.5406 18.6813C28.3929 18.8651 28.2287 19.1053 28.0482 19.4021C27.8677 19.6989 27.761 19.9038 27.7282 20.0169C27.6953 20.031 27.6133 20.0593 27.482 20.1017C27.3671 20.13 27.2932 20.1229 27.2604 20.0805C27.326 19.9674 27.4163 19.7625 27.5312 19.4657C27.6461 19.1689 27.7035 18.9004 27.7035 18.6601C27.7035 18.5047 27.6953 18.3351 27.6789 18.1514C27.6789 17.9535 27.5722 17.7839 27.3589 17.6426C27.1619 17.4871 26.9075 17.3528 26.5957 17.2398C26.2838 17.1267 25.9064 17.0702 25.4632 17.0702C24.5605 17.0702 23.8712 17.2963 23.3952 17.7486C22.9193 18.2008 22.6813 18.6955 22.6813 19.2325C22.6813 19.501 22.7469 19.7696 22.8782 20.0381C23.1244 20.5469 23.4691 21.0274 23.9122 21.4796C24.3554 21.9319 24.7903 22.3983 25.217 22.8788C25.6602 23.3452 26.0048 23.854 26.251 24.4052C26.4151 24.7726 26.4972 25.1471 26.4972 25.5287C26.4972 26.0799 26.3331 26.5816 26.0048 27.0339C25.693 27.4861 25.2663 27.8818 24.7246 28.221C24.1994 28.5461 23.625 28.8005 23.0013 28.9842C22.3776 29.1679 21.754 29.2598 21.1303 29.2598Z" fill="#C2983D"/>
<path d="M27.7677 35.375C27.1933 35.375 26.586 35.2973 25.9459 35.1418C25.3223 35.0005 24.7642 34.7602 24.2718 34.421C23.7959 34.0818 23.4758 33.6296 23.3117 33.0643C23.2953 32.9936 23.2789 32.9159 23.2625 32.8311C23.2625 32.7463 23.2625 32.6615 23.2625 32.5767C23.2625 32.1386 23.3774 31.7146 23.6071 31.3047C23.8369 30.8949 24.1159 30.5839 24.4442 30.372H24.4688C24.5016 30.372 24.5427 30.4073 24.5919 30.478C24.6575 30.5345 24.6575 30.5769 24.5919 30.6051C24.4278 30.7465 24.3047 30.909 24.2226 31.0927C24.157 31.2623 24.1241 31.4461 24.1241 31.6439C24.1241 31.9124 24.1734 32.188 24.2718 32.4707C24.3867 32.7392 24.5262 32.9724 24.6904 33.1703C25.1007 33.6649 25.6669 34.0606 26.3891 34.3574C27.1276 34.6401 27.8498 34.7814 28.5555 34.7814C29.5239 34.7814 30.2707 34.5341 30.7959 34.0394C31.3375 33.5448 31.6083 32.9371 31.6083 32.2163C31.6083 31.7782 31.5098 31.3401 31.3129 30.9019C31.0503 30.2942 30.6974 29.7006 30.2543 29.1212C29.8275 28.5276 29.4336 27.9482 29.0725 27.3828C28.7607 26.8741 28.6048 26.3582 28.6048 25.8353C28.6048 25.2841 28.8017 24.7541 29.1956 24.2453C29.5895 23.7931 30.1065 23.4327 30.7466 23.1642C31.4031 22.8815 32.0679 22.7402 32.7408 22.7402C33.2003 22.7402 33.6435 22.8109 34.0702 22.9522C34.4969 23.0935 34.8826 23.3267 35.2273 23.6518C35.3258 23.779 35.375 23.9415 35.375 24.1394C35.375 24.422 35.3093 24.6411 35.178 24.7965C35.0303 24.9803 34.8662 25.2205 34.6857 25.5173C34.5051 25.8141 34.3984 26.019 34.3656 26.1321C34.3328 26.1462 34.2507 26.1745 34.1194 26.2169C34.0045 26.2452 33.9307 26.2381 33.8979 26.1957C33.9635 26.0826 34.0538 25.8777 34.1687 25.5809C34.2836 25.2841 34.341 25.0156 34.341 24.7753C34.341 24.6199 34.3328 24.4503 34.3164 24.2665C34.3164 24.0687 34.2097 23.8991 33.9963 23.7578C33.7994 23.6023 33.545 23.468 33.2332 23.355C32.9213 23.2419 32.5438 23.1854 32.1007 23.1854C31.198 23.1854 30.5087 23.4115 30.0327 23.8638C29.5567 24.316 29.3187 24.8107 29.3187 25.3477C29.3187 25.6162 29.3844 25.8848 29.5157 26.1533C29.7619 26.6621 30.1065 27.1426 30.5497 27.5948C30.9928 28.0471 31.4278 28.5135 31.8545 28.994C32.2976 29.4604 32.6423 29.9692 32.8885 30.5204C33.0526 30.8878 33.1347 31.2623 33.1347 31.6439C33.1347 32.1951 32.9705 32.6968 32.6423 33.1491C32.3305 33.6013 31.9037 33.997 31.3621 34.3362C30.8369 34.6613 30.2625 34.9157 29.6388 35.0994C29.0151 35.2831 28.3914 35.375 27.7677 35.375Z" fill="#C2983D"/>
<path d="M51 26C51 39.8071 39.8071 51 26 51C12.1929 51 1 39.8071 1 26C1 12.1929 12.1929 1 26 1C39.8071 1 51 12.1929 51 26Z" stroke="black" stroke-width="2" mask="url(#path-1-outside-1_54_7)"/>
<path d="M13.4493 12.6699C13.208 12.9111 12.9634 13.0805 12.7153 13.1779C12.4641 13.2722 12.2206 13.296 11.9848 13.2493C11.7459 13.1995 11.5276 13.0757 11.3299 12.878L11.853 12.3548C12.01 12.5117 12.191 12.5786 12.3961 12.5555C12.5981 12.5293 12.8001 12.4152 13.0022 12.2131C13.1913 12.024 13.2956 11.8318 13.3153 11.6363C13.335 11.4409 13.268 11.2662 13.1142 11.1125C12.9855 10.9838 12.8366 10.9098 12.6675 10.8907C12.5016 10.8682 12.333 10.9082 12.1615 11.0106L11.5846 11.3333C11.2516 11.5219 10.9271 11.6016 10.6111 11.5724C10.2951 11.5368 10.0163 11.3982 9.77468 11.1565C9.58637 10.9682 9.4656 10.7594 9.41238 10.5302C9.35916 10.3009 9.37481 10.0656 9.45933 9.82415C9.54386 9.5827 9.69695 9.35115 9.91861 9.12949C10.2446 8.80352 10.5901 8.62748 10.9552 8.60138C11.3235 8.57201 11.6521 8.69851 11.9409 8.98085L11.4129 9.50892C11.2622 9.35828 11.094 9.29111 10.9082 9.30742C10.7225 9.31733 10.5401 9.41193 10.3608 9.59121C10.188 9.76398 10.0935 9.94006 10.0773 10.1195C10.058 10.2957 10.1205 10.456 10.2649 10.6004C10.3936 10.7291 10.5409 10.8046 10.7067 10.8271C10.8759 10.8463 11.0477 10.8062 11.2223 10.707L11.8088 10.3841C12.1386 10.1923 12.4615 10.1143 12.7774 10.1499C13.0934 10.1854 13.3737 10.3256 13.6185 10.5704C13.81 10.7619 13.9322 10.9786 13.9852 11.2207C14.035 11.4596 14.016 11.7046 13.9281 11.9557C13.837 12.2037 13.6774 12.4417 13.4493 12.6699Z" stroke="black" stroke-width="2" mask="url(#path-1-outside-1_54_7)"/>
<path d="M16.8521 10.1938L14.6941 6.45606L13.592 7.09236L13.25 6.5L16.0646 4.875L16.4066 5.46736L15.3045 6.10365L17.4625 9.84142L16.8521 10.1938Z" stroke="black" stroke-width="2" mask="url(#path-1-outside-1_54_7)"/>
<path d="M19.0441 8.79579L18.886 3.66177L19.7533 3.42939L22.1834 7.95463L21.5176 8.13301L20.9209 6.98107L19.6567 7.31982L19.7159 8.61578L19.0441 8.79579ZM19.6211 6.69828L20.6349 6.42662L19.9555 5.11248C19.8364 4.87967 19.7343 4.67776 19.6492 4.50674C19.567 4.33022 19.5109 4.21052 19.4809 4.14763C19.4865 4.21706 19.4977 4.34877 19.5148 4.54274C19.5307 4.73231 19.5426 4.95602 19.5506 5.21387L19.6211 6.69828Z" stroke="black" stroke-width="2" mask="url(#path-1-outside-1_54_7)"/>
<path d="M24.375 7.625V2.625H25.2986L25.8056 4.22774C25.8565 4.37842 25.9005 4.52454 25.9375 4.6661C25.9745 4.80308 26 4.90582 26.0139 4.97431C26.0324 4.90582 26.0579 4.80308 26.0903 4.6661C26.1273 4.52454 26.169 4.37842 26.2153 4.22774L26.7014 2.625H27.625V7.625H26.9167V5.94007C26.9167 5.72546 26.9213 5.48801 26.9306 5.22774C26.9444 4.9629 26.963 4.69806 26.9861 4.43322C27.0093 4.16381 27.0324 3.90811 27.0556 3.6661C27.0787 3.41952 27.0995 3.20491 27.1181 3.02226L26.3681 5.45377H25.6458L24.8819 3.02226C24.9051 3.20034 24.9282 3.40811 24.9514 3.64555C24.9745 3.87842 24.9954 4.12728 25.0139 4.39212C25.0324 4.65696 25.0486 4.92409 25.0625 5.19349C25.0764 5.45833 25.0833 5.70719 25.0833 5.94007V7.625H24.375Z" stroke="black" stroke-width="2" mask="url(#path-1-outside-1_54_7)"/>
<path d="M29.875 8.07963L31.1691 3.25L32.7587 3.67593C33.0735 3.76028 33.3302 3.89289 33.5289 4.07376C33.732 4.25581 33.8661 4.47374 33.9311 4.72754C34.0018 4.97811 33.9975 5.25115 33.9184 5.54667C33.8404 5.83777 33.7075 6.07636 33.5198 6.26243C33.3322 6.44851 33.1071 6.5702 32.8446 6.62751C32.5821 6.68481 32.2935 6.67129 31.9787 6.58694L31.1074 6.35348L30.5933 8.2721L29.875 8.07963ZM31.2794 5.71173L32.1506 5.94519C32.3989 6.01172 32.6157 5.99182 32.8011 5.88547C32.992 5.77591 33.1206 5.59763 33.1867 5.35063C33.2541 5.09923 33.2319 4.88055 33.1202 4.69461C33.0128 4.50985 32.835 4.38421 32.5867 4.31767L31.7154 4.08421L31.2794 5.71173Z" stroke="black" stroke-width="2" mask="url(#path-1-outside-1_54_7)"/>
<path d="M34 9.45513L36.5 5.125L39.3146 6.75L38.9858 7.31944L36.8667 6.09596L36.1578 7.32381L38.0473 8.41472L37.7219 8.97823L35.8324 7.88732L35.0242 9.2872L37.1433 10.5107L36.8146 11.0801L34 9.45513Z" stroke="black" stroke-width="2" mask="url(#path-1-outside-1_54_7)"/>
<path d="M38.125 12.1605L41.6605 8.625L42.7874 9.7519C43.0138 9.97827 43.1671 10.2187 43.2472 10.4732C43.3306 10.7245 43.3407 10.9735 43.2776 11.2203C43.2177 11.4705 43.0829 11.7005 42.873 11.9103C42.6373 12.146 42.3699 12.2887 42.0709 12.3384C41.7784 12.3882 41.4916 12.3436 41.2106 12.2046L40.4231 14.4586L39.8178 13.8534L40.6163 11.7459L40.1094 11.239L38.6565 12.692L38.125 12.1605ZM40.5695 10.7789L41.165 11.3744C41.3421 11.5515 41.5349 11.6409 41.7432 11.6426C41.9547 11.641 42.1476 11.5531 42.322 11.3787C42.5028 11.1979 42.5924 11.0033 42.5907 10.795C42.5891 10.5867 42.4996 10.394 42.3225 10.2169L41.7271 9.62141L40.5695 10.7789Z" stroke="black" stroke-width="2" mask="url(#path-1-outside-1_54_7)"/>
<path d="M9.91372 42.8242C9.6725 42.583 9.50317 42.3384 9.40573 42.0903C9.31143 41.8391 9.28763 41.5956 9.33433 41.3598C9.38417 41.1209 9.50795 40.9026 9.70568 40.7049L10.2289 41.228C10.0719 41.385 10.005 41.566 10.0281 41.7711C10.0543 41.9731 10.1685 42.1751 10.3706 42.3772C10.5596 42.5663 10.7519 42.6706 10.9473 42.6903C11.1428 42.71 11.3174 42.643 11.4712 42.4892C11.5999 42.3605 11.6738 42.2116 11.693 42.0425C11.7154 41.8766 11.6754 41.708 11.5731 41.5365L11.2503 40.9596C11.0617 40.6266 10.982 40.3021 11.0112 39.9861C11.0468 39.6701 11.1854 39.3913 11.4271 39.1497C11.6154 38.9614 11.8242 38.8406 12.0534 38.7874C12.2827 38.7342 12.518 38.7498 12.7595 38.8343C13.0009 38.9189 13.2325 39.0719 13.4541 39.2936C13.7801 39.6196 13.9562 39.9651 13.9823 40.3302C14.0116 40.6985 13.8851 41.0271 13.6028 41.3159L13.0747 40.7879C13.2254 40.6372 13.2925 40.469 13.2762 40.2832C13.2663 40.0975 13.1717 39.9151 12.9924 39.7358C12.8197 39.563 12.6436 39.4685 12.4642 39.4523C12.2879 39.433 12.1276 39.4955 11.9832 39.6399C11.8546 39.7686 11.779 39.9159 11.7566 40.0817C11.7374 40.2509 11.7774 40.4227 11.8767 40.5973L12.1996 41.1838C12.3913 41.5136 12.4694 41.8365 12.4338 42.1524C12.3982 42.4684 12.258 42.7487 12.0132 42.9935C11.8217 43.185 11.605 43.3072 11.363 43.3602C11.1241 43.41 10.879 43.391 10.6279 43.3031C10.38 43.212 10.1419 43.0524 9.91372 42.8242Z" stroke="black" stroke-width="2" mask="url(#path-1-outside-1_54_7)"/>
<path d="M13.9073 45.8926C13.6173 45.7252 13.3935 45.5318 13.2358 45.3125C13.0846 45.0918 13.0048 44.8558 12.9963 44.6046C12.9943 44.352 13.0656 44.1006 13.21 43.8504L14.29 41.9798C14.4367 41.7257 14.6188 41.5383 14.8363 41.4176C15.0581 41.2993 15.3013 41.2524 15.5658 41.2768C15.8368 41.2998 16.1173 41.3951 16.4073 41.5625C16.6973 41.7299 16.9179 41.924 17.069 42.1447C17.2267 42.364 17.3077 42.5981 17.3119 42.8469C17.3203 43.0981 17.2524 43.3488 17.1079 43.599L16.0246 45.4754C15.8801 45.7256 15.6959 45.9117 15.4719 46.0338C15.2543 46.1546 15.0101 46.2034 14.739 46.1804C14.4745 46.156 14.1973 46.0601 13.9073 45.8926ZM14.2273 45.3384C14.4618 45.4738 14.6722 45.5182 14.8582 45.4717C15.0508 45.4238 15.2093 45.2921 15.3337 45.0765L16.4137 43.2059C16.5404 42.9865 16.5752 42.7834 16.5182 42.5965C16.4655 42.4121 16.3218 42.2522 16.0873 42.1168C15.857 41.9838 15.6467 41.9394 15.4564 41.9834C15.266 42.0275 15.1075 42.1592 14.9809 42.3786L13.9009 44.2492C13.7764 44.4648 13.7416 44.6679 13.7964 44.8586C13.8534 45.0455 13.997 45.2054 14.2273 45.3384Z" stroke="black" stroke-width="2" mask="url(#path-1-outside-1_54_7)"/>
<path d="M17.125 47.5796L18.4191 42.75L21.5584 43.5912L21.3813 44.2519L18.9895 43.611L18.6036 45.0513L20.8103 45.6426L20.6333 46.3032L18.4408 45.7158L17.8867 47.7837L17.125 47.5796Z" stroke="black" stroke-width="2" mask="url(#path-1-outside-1_54_7)"/>
<path d="M22.9655 48.954L23.3416 44.6544L22.0739 44.5435L22.1335 43.8621L25.3711 44.1453L25.3115 44.8267L24.0438 44.7158L23.6676 49.0154L22.9655 48.954Z" stroke="black" stroke-width="2" mask="url(#path-1-outside-1_54_7)"/>
<path d="M27.6824 49.092L26.7883 44.1511L27.3511 44.1019L27.9482 47.6524C27.9639 47.7427 27.9785 47.8423 27.9919 47.9511C28.0092 48.0596 28.0243 48.166 28.0373 48.2703C28.0542 48.3742 28.0661 48.4649 28.0728 48.5422C28.0738 48.4642 28.0736 48.3725 28.0722 48.2672C28.0707 48.1619 28.0691 48.0544 28.0673 47.9445C28.0694 47.8343 28.0722 47.7332 28.0759 47.6412L28.1286 44.0339L28.7088 43.9831L29.364 47.5285C29.3796 47.6188 29.3961 47.7182 29.4134 47.8267C29.4346 47.9349 29.4555 48.0408 29.4763 48.1444C29.4971 48.248 29.5128 48.3383 29.5234 48.4153C29.5205 48.3376 29.5164 48.2463 29.5111 48.1413C29.5097 48.036 29.5081 47.9285 29.5063 47.8186C29.5044 47.7088 29.5034 47.608 29.5032 47.5164L29.4805 43.9156L30.0259 43.8679L29.9859 48.8905L29.2606 48.9539L28.6013 45.3607C28.5852 45.2659 28.5687 45.1665 28.5518 45.0625C28.5346 44.9541 28.5177 44.8501 28.5012 44.7507C28.4843 44.6468 28.469 44.561 28.4553 44.4935C28.4574 44.562 28.4591 44.649 28.4606 44.7543C28.4616 44.855 28.463 44.9603 28.4648 45.0702C28.4662 45.1755 28.4653 45.2764 28.4621 45.3729L28.4135 49.0281L27.6824 49.092Z" stroke="black" stroke-width="2" mask="url(#path-1-outside-1_54_7)"/>
<path d="M31.5441 48.4208L31.386 43.2868L32.2533 43.0544L34.6834 47.5796L34.0176 47.758L33.4209 46.6061L32.1567 46.9448L32.2159 48.2408L31.5441 48.4208ZM32.1211 46.3233L33.1349 46.0516L32.4555 44.7375C32.3364 44.5047 32.2343 44.3028 32.1492 44.1317C32.067 43.9552 32.0109 43.8355 31.9809 43.7726C31.9865 43.8421 31.9977 43.9738 32.0148 44.1677C32.0307 44.3573 32.0426 44.581 32.0506 44.8389L32.1211 46.3233Z" stroke="black" stroke-width="2" mask="url(#path-1-outside-1_54_7)"/>
<path d="M36.375 46.8301L33.875 42.5L35.2552 41.7032C35.5324 41.5431 35.8043 41.4573 36.0709 41.4458C36.3351 41.4303 36.5783 41.4849 36.8004 41.6098C37.0265 41.7323 37.2138 41.9221 37.3622 42.1792C37.5289 42.4679 37.5975 42.763 37.5681 43.0647C37.5404 43.3601 37.4231 43.6256 37.2162 43.861L39.1896 45.2051L38.4483 45.6331L36.6193 44.3164L35.9985 44.6748L37.0259 46.4543L36.375 46.8301ZM35.6732 44.1113L36.4024 43.6903C36.6194 43.565 36.7556 43.402 36.8112 43.2012C36.8644 42.9965 36.8294 42.7873 36.7061 42.5738C36.5782 42.3524 36.4135 42.2155 36.2118 42.1632C36.0102 42.1109 35.8009 42.1473 35.5839 42.2726L34.8547 42.6936L35.6732 44.1113Z" stroke="black" stroke-width="2" mask="url(#path-1-outside-1_54_7)"/>
<path d="M40.9105 43.9586L37.375 40.4231L39.6731 38.125L40.138 38.5899L38.4078 40.3202L39.4103 41.3228L40.9531 39.78L41.4132 40.2401L39.8704 41.7829L41.0134 42.9259L42.7437 41.1956L43.2086 41.6605L40.9105 43.9586Z" stroke="black" stroke-width="2" mask="url(#path-1-outside-1_54_7)"/>
<path d="M21.1303 29.2598C20.5558 29.2598 19.9486 29.1821 19.3085 29.0266C18.6848 28.8853 18.1268 28.645 17.6344 28.3058C17.1584 27.9666 16.8384 27.5144 16.6742 26.9491C16.6578 26.8784 16.6414 26.8007 16.625 26.7159C16.625 26.6311 16.625 26.5463 16.625 26.4615C16.625 26.0234 16.7399 25.5994 16.9697 25.1895C17.1994 24.7797 17.4785 24.4688 17.8067 24.2568H17.8313C17.8642 24.2568 17.9052 24.2921 17.9544 24.3628C18.0201 24.4193 18.0201 24.4617 17.9544 24.49C17.7903 24.6313 17.6672 24.7938 17.5851 24.9775C17.5195 25.1471 17.4867 25.3309 17.4867 25.5287C17.4867 25.7972 17.5359 26.0728 17.6344 26.3555C17.7493 26.624 17.8888 26.8572 18.0529 27.0551C18.4632 27.5497 19.0295 27.9454 19.7516 28.2422C20.4902 28.5249 21.2123 28.6662 21.9181 28.6662C22.8864 28.6662 23.6332 28.4189 24.1584 27.9242C24.7 27.4296 24.9708 26.8219 24.9708 26.1011C24.9708 25.663 24.8724 25.2249 24.6754 24.7867C24.4128 24.179 24.0599 23.5854 23.6168 23.006C23.1901 22.4124 22.7962 21.833 22.4351 21.2677C22.1232 20.7589 21.9673 20.243 21.9673 19.7201C21.9673 19.1689 22.1643 18.6389 22.5582 18.1302C22.9521 17.6779 23.4691 17.3175 24.1092 17.049C24.7657 16.7663 25.4304 16.625 26.1033 16.625C26.5629 16.625 27.006 16.6957 27.4327 16.837C27.8595 16.9783 28.2452 17.2115 28.5898 17.5366C28.6883 17.6638 28.7375 17.8263 28.7375 18.0242C28.7375 18.3068 28.6719 18.5259 28.5406 18.6813C28.3929 18.8651 28.2287 19.1053 28.0482 19.4021C27.8677 19.6989 27.761 19.9038 27.7282 20.0169C27.6953 20.031 27.6133 20.0593 27.482 20.1017C27.3671 20.13 27.2932 20.1229 27.2604 20.0805C27.326 19.9674 27.4163 19.7625 27.5312 19.4657C27.6461 19.1689 27.7035 18.9004 27.7035 18.6601C27.7035 18.5047 27.6953 18.3351 27.6789 18.1514C27.6789 17.9535 27.5722 17.7839 27.3589 17.6426C27.1619 17.4871 26.9075 17.3528 26.5957 17.2398C26.2838 17.1267 25.9064 17.0702 25.4632 17.0702C24.5605 17.0702 23.8712 17.2963 23.3952 17.7486C22.9193 18.2008 22.6813 18.6955 22.6813 19.2325C22.6813 19.501 22.7469 19.7696 22.8782 20.0381C23.1244 20.5469 23.4691 21.0274 23.9122 21.4796C24.3554 21.9319 24.7903 22.3983 25.217 22.8788C25.6602 23.3452 26.0048 23.854 26.251 24.4052C26.4151 24.7726 26.4972 25.1471 26.4972 25.5287C26.4972 26.0799 26.3331 26.5816 26.0048 27.0339C25.693 27.4861 25.2663 27.8818 24.7246 28.221C24.1994 28.5461 23.625 28.8005 23.0013 28.9842C22.3776 29.1679 21.754 29.2598 21.1303 29.2598Z" stroke="black" stroke-width="2" mask="url(#path-1-outside-1_54_7)"/>
<path d="M27.7677 35.375C27.1933 35.375 26.586 35.2973 25.9459 35.1418C25.3223 35.0005 24.7642 34.7602 24.2718 34.421C23.7959 34.0818 23.4758 33.6296 23.3117 33.0643C23.2953 32.9936 23.2789 32.9159 23.2625 32.8311C23.2625 32.7463 23.2625 32.6615 23.2625 32.5767C23.2625 32.1386 23.3774 31.7146 23.6071 31.3047C23.8369 30.8949 24.1159 30.5839 24.4442 30.372H24.4688C24.5016 30.372 24.5427 30.4073 24.5919 30.478C24.6575 30.5345 24.6575 30.5769 24.5919 30.6051C24.4278 30.7465 24.3047 30.909 24.2226 31.0927C24.157 31.2623 24.1241 31.4461 24.1241 31.6439C24.1241 31.9124 24.1734 32.188 24.2718 32.4707C24.3867 32.7392 24.5262 32.9724 24.6904 33.1703C25.1007 33.6649 25.6669 34.0606 26.3891 34.3574C27.1276 34.6401 27.8498 34.7814 28.5555 34.7814C29.5239 34.7814 30.2707 34.5341 30.7959 34.0394C31.3375 33.5448 31.6083 32.9371 31.6083 32.2163C31.6083 31.7782 31.5098 31.3401 31.3129 30.9019C31.0503 30.2942 30.6974 29.7006 30.2543 29.1212C29.8275 28.5276 29.4336 27.9482 29.0725 27.3828C28.7607 26.8741 28.6048 26.3582 28.6048 25.8353C28.6048 25.2841 28.8017 24.7541 29.1956 24.2453C29.5895 23.7931 30.1065 23.4327 30.7466 23.1642C31.4031 22.8815 32.0679 22.7402 32.7408 22.7402C33.2003 22.7402 33.6435 22.8109 34.0702 22.9522C34.4969 23.0935 34.8826 23.3267 35.2273 23.6518C35.3258 23.779 35.375 23.9415 35.375 24.1394C35.375 24.422 35.3093 24.6411 35.178 24.7965C35.0303 24.9803 34.8662 25.2205 34.6857 25.5173C34.5051 25.8141 34.3984 26.019 34.3656 26.1321C34.3328 26.1462 34.2507 26.1745 34.1194 26.2169C34.0045 26.2452 33.9307 26.2381 33.8979 26.1957C33.9635 26.0826 34.0538 25.8777 34.1687 25.5809C34.2836 25.2841 34.341 25.0156 34.341 24.7753C34.341 24.6199 34.3328 24.4503 34.3164 24.2665C34.3164 24.0687 34.2097 23.8991 33.9963 23.7578C33.7994 23.6023 33.545 23.468 33.2332 23.355C32.9213 23.2419 32.5438 23.1854 32.1007 23.1854C31.198 23.1854 30.5087 23.4115 30.0327 23.8638C29.5567 24.316 29.3187 24.8107 29.3187 25.3477C29.3187 25.6162 29.3844 25.8848 29.5157 26.1533C29.7619 26.6621 30.1065 27.1426 30.5497 27.5948C30.9928 28.0471 31.4278 28.5135 31.8545 28.994C32.2976 29.4604 32.6423 29.9692 32.8885 30.5204C33.0526 30.8878 33.1347 31.2623 33.1347 31.6439C33.1347 32.1951 32.9705 32.6968 32.6423 33.1491C32.3305 33.6013 31.9037 33.997 31.3621 34.3362C30.8369 34.6613 30.2625 34.9157 29.6388 35.0994C29.0151 35.2831 28.3914 35.375 27.7677 35.375Z" stroke="black" stroke-width="2" mask="url(#path-1-outside-1_54_7)"/>
</svg>
