<svg width="102" height="102" viewBox="0 0 102 102" fill="none" xmlns="http://www.w3.org/2000/svg">
<mask id="path-1-outside-1_7_17" maskUnits="userSpaceOnUse" x="0" y="0" width="102" height="102" fill="black">
<rect fill="white" width="102" height="102"/>
<path d="M101 51C101 78.6142 78.6142 101 51 101C23.3858 101 1 78.6142 1 51C1 23.3858 23.3858 1 51 1C78.6142 1 101 23.3858 101 51Z"/>
<path d="M32.8488 62.72C30.9821 62.72 29.0088 62.4267 26.9288 61.84C24.9021 61.3067 23.0888 60.4 21.4888 59.12C19.9421 57.84 18.9021 56.1333 18.3688 54C18.3155 53.7333 18.2621 53.44 18.2088 53.12C18.2088 52.8 18.2088 52.48 18.2088 52.16C18.2088 50.5067 18.5821 48.9067 19.3288 47.36C20.0755 45.8133 20.9821 44.64 22.0488 43.84H22.1288C22.2355 43.84 22.3688 43.9733 22.5288 44.24C22.7421 44.4533 22.7421 44.6133 22.5288 44.72C21.9955 45.2533 21.5955 45.8667 21.3288 46.56C21.1155 47.2 21.0088 47.8933 21.0088 48.64C21.0088 49.6533 21.1688 50.6933 21.4888 51.76C21.8621 52.7733 22.3155 53.6533 22.8488 54.4C24.1821 56.2667 26.0221 57.76 28.3688 58.88C30.7688 59.9467 33.1155 60.48 35.4088 60.48C38.5555 60.48 40.9821 59.5467 42.6888 57.68C44.4488 55.8133 45.3288 53.52 45.3288 50.8C45.3288 49.1467 45.0088 47.4933 44.3688 45.84C43.5155 43.5467 42.3688 41.3067 40.9288 39.12C39.5421 36.88 38.2621 34.6933 37.0888 32.56C36.0755 30.64 35.5688 28.6933 35.5688 26.72C35.5688 24.64 36.2088 22.64 37.4888 20.72C38.7688 19.0133 40.4488 17.6533 42.5288 16.64C44.6621 15.5733 46.8221 15.04 49.0088 15.04C50.5021 15.04 51.9421 15.3067 53.3288 15.84C54.7155 16.3733 55.9688 17.2533 57.0888 18.48C57.4088 18.96 57.5688 19.5733 57.5688 20.32C57.5688 21.3867 57.3555 22.2133 56.9288 22.8C56.4488 23.4933 55.9155 24.4 55.3288 25.52C54.7421 26.64 54.3955 27.4133 54.2888 27.84C54.1821 27.8933 53.9155 28 53.4888 28.16C53.1155 28.2667 52.8755 28.24 52.7688 28.08C52.9821 27.6533 53.2755 26.88 53.6488 25.76C54.0221 24.64 54.2088 23.6267 54.2088 22.72C54.2088 22.1333 54.1821 21.4933 54.1288 20.8C54.1288 20.0533 53.7821 19.4133 53.0888 18.88C52.4488 18.2933 51.6221 17.7867 50.6088 17.36C49.5955 16.9333 48.3688 16.72 46.9288 16.72C43.9955 16.72 41.7555 17.5733 40.2088 19.28C38.6621 20.9867 37.8888 22.8533 37.8888 24.88C37.8888 25.8933 38.1021 26.9067 38.5288 27.92C39.3288 29.84 40.4488 31.6533 41.8888 33.36C43.3288 35.0667 44.7421 36.8267 46.1288 38.64C47.5688 40.4 48.6888 42.32 49.4888 44.4C50.0221 45.7867 50.2888 47.2 50.2888 48.64C50.2888 50.72 49.7555 52.6133 48.6888 54.32C47.6755 56.0267 46.2888 57.52 44.5288 58.8C42.8221 60.0267 40.9555 60.9867 38.9288 61.68C36.9021 62.3733 34.8755 62.72 32.8488 62.72Z"/>
<path d="M54.4174 85.7969C52.5508 85.7969 50.5774 85.5036 48.4974 84.9169C46.4708 84.3836 44.6574 83.4769 43.0574 82.1969C41.5108 80.9169 40.4708 79.2102 39.9374 77.0769C39.8841 76.8102 39.8308 76.5169 39.7774 76.1969C39.7774 75.8769 39.7774 75.5569 39.7774 75.2369C39.7774 73.5836 40.1508 71.9836 40.8974 70.4369C41.6441 68.8902 42.5508 67.7169 43.6174 66.9169H43.6974C43.8041 66.9169 43.9374 67.0502 44.0974 67.3169C44.3108 67.5302 44.3108 67.6902 44.0974 67.7969C43.5641 68.3302 43.1641 68.9436 42.8974 69.6369C42.6841 70.2769 42.5774 70.9702 42.5774 71.7169C42.5774 72.7302 42.7374 73.7702 43.0574 74.8369C43.4308 75.8502 43.8841 76.7302 44.4174 77.4769C45.7508 79.3436 47.5908 80.8369 49.9374 81.9569C52.3374 83.0236 54.6841 83.5569 56.9774 83.5569C60.1241 83.5569 62.5508 82.6236 64.2574 80.7569C66.0174 78.8902 66.8974 76.5969 66.8974 73.8769C66.8974 72.2236 66.5774 70.5702 65.9374 68.9169C65.0841 66.6236 63.9374 64.3836 62.4974 62.1969C61.1108 59.9569 59.8308 57.7702 58.6574 55.6369C57.6441 53.7169 57.1374 51.7702 57.1374 49.7969C57.1374 47.7169 57.7774 45.7169 59.0574 43.7969C60.3374 42.0902 62.0174 40.7302 64.0974 39.7169C66.2308 38.6502 68.3908 38.1169 70.5774 38.1169C72.0708 38.1169 73.5108 38.3836 74.8974 38.9169C76.2841 39.4502 77.5374 40.3302 78.6574 41.5569C78.9774 42.0369 79.1374 42.6502 79.1374 43.3969C79.1374 44.4636 78.9241 45.2902 78.4974 45.8769C78.0174 46.5702 77.4841 47.4769 76.8974 48.5969C76.3108 49.7169 75.9641 50.4902 75.8574 50.9169C75.7508 50.9702 75.4841 51.0769 75.0574 51.2369C74.6841 51.3436 74.4441 51.3169 74.3374 51.1569C74.5508 50.7302 74.8441 49.9569 75.2174 48.8369C75.5908 47.7169 75.7774 46.7036 75.7774 45.7969C75.7774 45.2102 75.7508 44.5702 75.6974 43.8769C75.6974 43.1302 75.3508 42.4902 74.6574 41.9569C74.0174 41.3702 73.1908 40.8636 72.1774 40.4369C71.1641 40.0102 69.9374 39.7969 68.4974 39.7969C65.5641 39.7969 63.3241 40.6502 61.7774 42.3569C60.2308 44.0636 59.4574 45.9302 59.4574 47.9569C59.4574 48.9702 59.6708 49.9836 60.0974 50.9969C60.8974 52.9169 62.0174 54.7302 63.4574 56.4369C64.8974 58.1436 66.3108 59.9036 67.6974 61.7169C69.1374 63.4769 70.2574 65.3969 71.0574 67.4769C71.5908 68.8636 71.8574 70.2769 71.8574 71.7169C71.8574 73.7969 71.3241 75.6902 70.2574 77.3969C69.2441 79.1036 67.8574 80.5969 66.0974 81.8769C64.3908 83.1036 62.5241 84.0636 60.4974 84.7569C58.4708 85.4502 56.4441 85.7969 54.4174 85.7969Z"/>
</mask>
<path d="M101 51C101 78.6142 78.6142 101 51 101C23.3858 101 1 78.6142 1 51C1 23.3858 23.3858 1 51 1C78.6142 1 101 23.3858 101 51Z" fill="#252423"/>
<path d="M32.8488 62.72C30.9821 62.72 29.0088 62.4267 26.9288 61.84C24.9021 61.3067 23.0888 60.4 21.4888 59.12C19.9421 57.84 18.9021 56.1333 18.3688 54C18.3155 53.7333 18.2621 53.44 18.2088 53.12C18.2088 52.8 18.2088 52.48 18.2088 52.16C18.2088 50.5067 18.5821 48.9067 19.3288 47.36C20.0755 45.8133 20.9821 44.64 22.0488 43.84H22.1288C22.2355 43.84 22.3688 43.9733 22.5288 44.24C22.7421 44.4533 22.7421 44.6133 22.5288 44.72C21.9955 45.2533 21.5955 45.8667 21.3288 46.56C21.1155 47.2 21.0088 47.8933 21.0088 48.64C21.0088 49.6533 21.1688 50.6933 21.4888 51.76C21.8621 52.7733 22.3155 53.6533 22.8488 54.4C24.1821 56.2667 26.0221 57.76 28.3688 58.88C30.7688 59.9467 33.1155 60.48 35.4088 60.48C38.5555 60.48 40.9821 59.5467 42.6888 57.68C44.4488 55.8133 45.3288 53.52 45.3288 50.8C45.3288 49.1467 45.0088 47.4933 44.3688 45.84C43.5155 43.5467 42.3688 41.3067 40.9288 39.12C39.5421 36.88 38.2621 34.6933 37.0888 32.56C36.0755 30.64 35.5688 28.6933 35.5688 26.72C35.5688 24.64 36.2088 22.64 37.4888 20.72C38.7688 19.0133 40.4488 17.6533 42.5288 16.64C44.6621 15.5733 46.8221 15.04 49.0088 15.04C50.5021 15.04 51.9421 15.3067 53.3288 15.84C54.7155 16.3733 55.9688 17.2533 57.0888 18.48C57.4088 18.96 57.5688 19.5733 57.5688 20.32C57.5688 21.3867 57.3555 22.2133 56.9288 22.8C56.4488 23.4933 55.9155 24.4 55.3288 25.52C54.7421 26.64 54.3955 27.4133 54.2888 27.84C54.1821 27.8933 53.9155 28 53.4888 28.16C53.1155 28.2667 52.8755 28.24 52.7688 28.08C52.9821 27.6533 53.2755 26.88 53.6488 25.76C54.0221 24.64 54.2088 23.6267 54.2088 22.72C54.2088 22.1333 54.1821 21.4933 54.1288 20.8C54.1288 20.0533 53.7821 19.4133 53.0888 18.88C52.4488 18.2933 51.6221 17.7867 50.6088 17.36C49.5955 16.9333 48.3688 16.72 46.9288 16.72C43.9955 16.72 41.7555 17.5733 40.2088 19.28C38.6621 20.9867 37.8888 22.8533 37.8888 24.88C37.8888 25.8933 38.1021 26.9067 38.5288 27.92C39.3288 29.84 40.4488 31.6533 41.8888 33.36C43.3288 35.0667 44.7421 36.8267 46.1288 38.64C47.5688 40.4 48.6888 42.32 49.4888 44.4C50.0221 45.7867 50.2888 47.2 50.2888 48.64C50.2888 50.72 49.7555 52.6133 48.6888 54.32C47.6755 56.0267 46.2888 57.52 44.5288 58.8C42.8221 60.0267 40.9555 60.9867 38.9288 61.68C36.9021 62.3733 34.8755 62.72 32.8488 62.72Z" fill="#C2983D"/>
<path d="M54.4174 85.7969C52.5508 85.7969 50.5774 85.5036 48.4974 84.9169C46.4708 84.3836 44.6574 83.4769 43.0574 82.1969C41.5108 80.9169 40.4708 79.2102 39.9374 77.0769C39.8841 76.8102 39.8308 76.5169 39.7774 76.1969C39.7774 75.8769 39.7774 75.5569 39.7774 75.2369C39.7774 73.5836 40.1508 71.9836 40.8974 70.4369C41.6441 68.8902 42.5508 67.7169 43.6174 66.9169H43.6974C43.8041 66.9169 43.9374 67.0502 44.0974 67.3169C44.3108 67.5302 44.3108 67.6902 44.0974 67.7969C43.5641 68.3302 43.1641 68.9436 42.8974 69.6369C42.6841 70.2769 42.5774 70.9702 42.5774 71.7169C42.5774 72.7302 42.7374 73.7702 43.0574 74.8369C43.4308 75.8502 43.8841 76.7302 44.4174 77.4769C45.7508 79.3436 47.5908 80.8369 49.9374 81.9569C52.3374 83.0236 54.6841 83.5569 56.9774 83.5569C60.1241 83.5569 62.5508 82.6236 64.2574 80.7569C66.0174 78.8902 66.8974 76.5969 66.8974 73.8769C66.8974 72.2236 66.5774 70.5702 65.9374 68.9169C65.0841 66.6236 63.9374 64.3836 62.4974 62.1969C61.1108 59.9569 59.8308 57.7702 58.6574 55.6369C57.6441 53.7169 57.1374 51.7702 57.1374 49.7969C57.1374 47.7169 57.7774 45.7169 59.0574 43.7969C60.3374 42.0902 62.0174 40.7302 64.0974 39.7169C66.2308 38.6502 68.3908 38.1169 70.5774 38.1169C72.0708 38.1169 73.5108 38.3836 74.8974 38.9169C76.2841 39.4502 77.5374 40.3302 78.6574 41.5569C78.9774 42.0369 79.1374 42.6502 79.1374 43.3969C79.1374 44.4636 78.9241 45.2902 78.4974 45.8769C78.0174 46.5702 77.4841 47.4769 76.8974 48.5969C76.3108 49.7169 75.9641 50.4902 75.8574 50.9169C75.7508 50.9702 75.4841 51.0769 75.0574 51.2369C74.6841 51.3436 74.4441 51.3169 74.3374 51.1569C74.5508 50.7302 74.8441 49.9569 75.2174 48.8369C75.5908 47.7169 75.7774 46.7036 75.7774 45.7969C75.7774 45.2102 75.7508 44.5702 75.6974 43.8769C75.6974 43.1302 75.3508 42.4902 74.6574 41.9569C74.0174 41.3702 73.1908 40.8636 72.1774 40.4369C71.1641 40.0102 69.9374 39.7969 68.4974 39.7969C65.5641 39.7969 63.3241 40.6502 61.7774 42.3569C60.2308 44.0636 59.4574 45.9302 59.4574 47.9569C59.4574 48.9702 59.6708 49.9836 60.0974 50.9969C60.8974 52.9169 62.0174 54.7302 63.4574 56.4369C64.8974 58.1436 66.3108 59.9036 67.6974 61.7169C69.1374 63.4769 70.2574 65.3969 71.0574 67.4769C71.5908 68.8636 71.8574 70.2769 71.8574 71.7169C71.8574 73.7969 71.3241 75.6902 70.2574 77.3969C69.2441 79.1036 67.8574 80.5969 66.0974 81.8769C64.3908 83.1036 62.5241 84.0636 60.4974 84.7569C58.4708 85.4502 56.4441 85.7969 54.4174 85.7969Z" fill="#C2983D"/>
<path d="M101 51C101 78.6142 78.6142 101 51 101C23.3858 101 1 78.6142 1 51C1 23.3858 23.3858 1 51 1C78.6142 1 101 23.3858 101 51Z" stroke="black" stroke-width="2" mask="url(#path-1-outside-1_7_17)"/>
<path d="M32.8488 62.72C30.9821 62.72 29.0088 62.4267 26.9288 61.84C24.9021 61.3067 23.0888 60.4 21.4888 59.12C19.9421 57.84 18.9021 56.1333 18.3688 54C18.3155 53.7333 18.2621 53.44 18.2088 53.12C18.2088 52.8 18.2088 52.48 18.2088 52.16C18.2088 50.5067 18.5821 48.9067 19.3288 47.36C20.0755 45.8133 20.9821 44.64 22.0488 43.84H22.1288C22.2355 43.84 22.3688 43.9733 22.5288 44.24C22.7421 44.4533 22.7421 44.6133 22.5288 44.72C21.9955 45.2533 21.5955 45.8667 21.3288 46.56C21.1155 47.2 21.0088 47.8933 21.0088 48.64C21.0088 49.6533 21.1688 50.6933 21.4888 51.76C21.8621 52.7733 22.3155 53.6533 22.8488 54.4C24.1821 56.2667 26.0221 57.76 28.3688 58.88C30.7688 59.9467 33.1155 60.48 35.4088 60.48C38.5555 60.48 40.9821 59.5467 42.6888 57.68C44.4488 55.8133 45.3288 53.52 45.3288 50.8C45.3288 49.1467 45.0088 47.4933 44.3688 45.84C43.5155 43.5467 42.3688 41.3067 40.9288 39.12C39.5421 36.88 38.2621 34.6933 37.0888 32.56C36.0755 30.64 35.5688 28.6933 35.5688 26.72C35.5688 24.64 36.2088 22.64 37.4888 20.72C38.7688 19.0133 40.4488 17.6533 42.5288 16.64C44.6621 15.5733 46.8221 15.04 49.0088 15.04C50.5021 15.04 51.9421 15.3067 53.3288 15.84C54.7155 16.3733 55.9688 17.2533 57.0888 18.48C57.4088 18.96 57.5688 19.5733 57.5688 20.32C57.5688 21.3867 57.3555 22.2133 56.9288 22.8C56.4488 23.4933 55.9155 24.4 55.3288 25.52C54.7421 26.64 54.3955 27.4133 54.2888 27.84C54.1821 27.8933 53.9155 28 53.4888 28.16C53.1155 28.2667 52.8755 28.24 52.7688 28.08C52.9821 27.6533 53.2755 26.88 53.6488 25.76C54.0221 24.64 54.2088 23.6267 54.2088 22.72C54.2088 22.1333 54.1821 21.4933 54.1288 20.8C54.1288 20.0533 53.7821 19.4133 53.0888 18.88C52.4488 18.2933 51.6221 17.7867 50.6088 17.36C49.5955 16.9333 48.3688 16.72 46.9288 16.72C43.9955 16.72 41.7555 17.5733 40.2088 19.28C38.6621 20.9867 37.8888 22.8533 37.8888 24.88C37.8888 25.8933 38.1021 26.9067 38.5288 27.92C39.3288 29.84 40.4488 31.6533 41.8888 33.36C43.3288 35.0667 44.7421 36.8267 46.1288 38.64C47.5688 40.4 48.6888 42.32 49.4888 44.4C50.0221 45.7867 50.2888 47.2 50.2888 48.64C50.2888 50.72 49.7555 52.6133 48.6888 54.32C47.6755 56.0267 46.2888 57.52 44.5288 58.8C42.8221 60.0267 40.9555 60.9867 38.9288 61.68C36.9021 62.3733 34.8755 62.72 32.8488 62.72Z" stroke="black" stroke-width="2" mask="url(#path-1-outside-1_7_17)"/>
<path d="M54.4174 85.7969C52.5508 85.7969 50.5774 85.5036 48.4974 84.9169C46.4708 84.3836 44.6574 83.4769 43.0574 82.1969C41.5108 80.9169 40.4708 79.2102 39.9374 77.0769C39.8841 76.8102 39.8308 76.5169 39.7774 76.1969C39.7774 75.8769 39.7774 75.5569 39.7774 75.2369C39.7774 73.5836 40.1508 71.9836 40.8974 70.4369C41.6441 68.8902 42.5508 67.7169 43.6174 66.9169H43.6974C43.8041 66.9169 43.9374 67.0502 44.0974 67.3169C44.3108 67.5302 44.3108 67.6902 44.0974 67.7969C43.5641 68.3302 43.1641 68.9436 42.8974 69.6369C42.6841 70.2769 42.5774 70.9702 42.5774 71.7169C42.5774 72.7302 42.7374 73.7702 43.0574 74.8369C43.4308 75.8502 43.8841 76.7302 44.4174 77.4769C45.7508 79.3436 47.5908 80.8369 49.9374 81.9569C52.3374 83.0236 54.6841 83.5569 56.9774 83.5569C60.1241 83.5569 62.5508 82.6236 64.2574 80.7569C66.0174 78.8902 66.8974 76.5969 66.8974 73.8769C66.8974 72.2236 66.5774 70.5702 65.9374 68.9169C65.0841 66.6236 63.9374 64.3836 62.4974 62.1969C61.1108 59.9569 59.8308 57.7702 58.6574 55.6369C57.6441 53.7169 57.1374 51.7702 57.1374 49.7969C57.1374 47.7169 57.7774 45.7169 59.0574 43.7969C60.3374 42.0902 62.0174 40.7302 64.0974 39.7169C66.2308 38.6502 68.3908 38.1169 70.5774 38.1169C72.0708 38.1169 73.5108 38.3836 74.8974 38.9169C76.2841 39.4502 77.5374 40.3302 78.6574 41.5569C78.9774 42.0369 79.1374 42.6502 79.1374 43.3969C79.1374 44.4636 78.9241 45.2902 78.4974 45.8769C78.0174 46.5702 77.4841 47.4769 76.8974 48.5969C76.3108 49.7169 75.9641 50.4902 75.8574 50.9169C75.7508 50.9702 75.4841 51.0769 75.0574 51.2369C74.6841 51.3436 74.4441 51.3169 74.3374 51.1569C74.5508 50.7302 74.8441 49.9569 75.2174 48.8369C75.5908 47.7169 75.7774 46.7036 75.7774 45.7969C75.7774 45.2102 75.7508 44.5702 75.6974 43.8769C75.6974 43.1302 75.3508 42.4902 74.6574 41.9569C74.0174 41.3702 73.1908 40.8636 72.1774 40.4369C71.1641 40.0102 69.9374 39.7969 68.4974 39.7969C65.5641 39.7969 63.3241 40.6502 61.7774 42.3569C60.2308 44.0636 59.4574 45.9302 59.4574 47.9569C59.4574 48.9702 59.6708 49.9836 60.0974 50.9969C60.8974 52.9169 62.0174 54.7302 63.4574 56.4369C64.8974 58.1436 66.3108 59.9036 67.6974 61.7169C69.1374 63.4769 70.2574 65.3969 71.0574 67.4769C71.5908 68.8636 71.8574 70.2769 71.8574 71.7169C71.8574 73.7969 71.3241 75.6902 70.2574 77.3969C69.2441 79.1036 67.8574 80.5969 66.0974 81.8769C64.3908 83.1036 62.5241 84.0636 60.4974 84.7569C58.4708 85.4502 56.4441 85.7969 54.4174 85.7969Z" stroke="black" stroke-width="2" mask="url(#path-1-outside-1_7_17)"/>
</svg>
