<svg width="475" height="380" viewBox="0 0 475 380" fill="none" xmlns="http://www.w3.org/2000/svg">
<circle cx="237" cy="190" r="190" fill="#252423"/>
<path d="M122.644 224.64C119.572 224.64 116.926 224.128 114.708 223.104C112.532 222.08 110.846 220.608 109.652 218.688C108.457 216.768 107.838 214.485 107.796 211.84H113.556C113.556 214.187 114.345 216.043 115.924 217.408C117.545 218.773 119.785 219.456 122.644 219.456C125.332 219.456 127.422 218.795 128.916 217.472C130.452 216.149 131.22 214.315 131.22 211.968C131.22 210.091 130.708 208.448 129.684 207.04C128.702 205.632 127.273 204.651 125.396 204.096L119.06 202.112C115.86 201.131 113.385 199.488 111.635 197.184C109.929 194.88 109.076 192.171 109.076 189.056C109.076 186.539 109.63 184.363 110.74 182.528C111.892 180.651 113.492 179.2 115.54 178.176C117.588 177.109 119.998 176.576 122.772 176.576C126.868 176.576 130.153 177.728 132.628 180.032C135.102 182.293 136.361 185.323 136.404 189.12H130.644C130.644 186.816 129.94 185.024 128.532 183.744C127.166 182.421 125.225 181.76 122.708 181.76C120.233 181.76 118.292 182.357 116.884 183.552C115.518 184.747 114.836 186.411 114.836 188.544C114.836 190.464 115.348 192.128 116.372 193.536C117.396 194.944 118.868 195.947 120.788 196.544L127.188 198.592C130.302 199.573 132.713 201.237 134.42 203.584C136.126 205.931 136.979 208.683 136.979 211.84C136.979 214.4 136.382 216.64 135.188 218.56C133.993 220.48 132.308 221.973 130.132 223.04C127.998 224.107 125.502 224.64 122.644 224.64ZM157.883 224V182.464H145.083V177.216H176.443V182.464H163.643V224H157.883ZM183.138 224L195.298 177.28H203.042L215.138 224H209.314L206.242 211.584H192.098L189.026 224H183.138ZM193.25 206.72H205.026L201.442 192.32C200.759 189.589 200.226 187.307 199.842 185.472C199.458 183.637 199.223 182.443 199.138 181.888C199.052 182.443 198.818 183.637 198.434 185.472C198.05 187.307 197.516 189.568 196.833 192.256L193.25 206.72ZM223.177 224V177.28H230.729L235.593 192.384C236.062 193.749 236.489 195.115 236.873 196.48C237.257 197.803 237.534 198.827 237.705 199.552C237.918 198.827 238.195 197.803 238.537 196.48C238.878 195.115 239.262 193.728 239.689 192.32L244.297 177.28H251.849V224H246.217V207.04C246.217 205.163 246.281 203.029 246.409 200.64C246.537 198.251 246.707 195.819 246.921 193.344C247.134 190.827 247.347 188.437 247.561 186.176C247.817 183.872 248.03 181.867 248.201 180.16L240.649 203.52H234.569L226.953 180.16C227.166 181.824 227.379 183.765 227.593 185.984C227.806 188.16 227.998 190.485 228.169 192.96C228.339 195.392 228.489 197.824 228.617 200.256C228.745 202.688 228.809 204.949 228.809 207.04V224H223.177ZM262.576 224V177.28H277.616C280.517 177.28 283.034 177.856 285.168 179.008C287.301 180.117 288.944 181.696 290.096 183.744C291.29 185.792 291.888 188.224 291.888 191.04C291.888 193.813 291.29 196.245 290.096 198.336C288.944 200.384 287.301 201.984 285.168 203.136C283.034 204.245 280.517 204.8 277.616 204.8H268.336V224H262.576ZM268.336 199.616H277.616C280.133 199.616 282.138 198.848 283.632 197.312C285.168 195.733 285.936 193.643 285.936 191.04C285.936 188.395 285.168 186.304 283.632 184.768C282.138 183.232 280.133 182.464 277.616 182.464H268.336V199.616ZM301.463 224V177.28H328.343V182.528H307.159V196.992H326.103V202.176H307.159V218.752H328.343V224H301.463ZM339.326 224V177.28H353.79C356.563 177.28 358.995 177.856 361.086 179.008C363.176 180.117 364.798 181.675 365.95 183.68C367.102 185.685 367.678 188.032 367.678 190.72C367.678 193.877 366.846 196.587 365.182 198.848C363.56 201.109 361.342 202.667 358.526 203.52L368.318 224H361.534L352.574 204.16H345.086V224H339.326ZM345.086 198.976H353.79C356.179 198.976 358.099 198.229 359.55 196.736C361 195.2 361.726 193.195 361.726 190.72C361.726 188.203 361 186.197 359.55 184.704C358.099 183.211 356.179 182.464 353.79 182.464H345.086V198.976ZM136.967 287.48C134.663 287.48 132.679 287.096 131.015 286.328C129.383 285.56 128.119 284.456 127.223 283.016C126.327 281.576 125.863 279.864 125.831 277.88H130.151C130.151 279.64 130.743 281.032 131.927 282.056C133.143 283.08 134.823 283.592 136.967 283.592C138.983 283.592 140.551 283.096 141.671 282.104C142.823 281.112 143.399 279.736 143.399 277.976C143.399 276.568 143.015 275.336 142.247 274.28C141.511 273.224 140.439 272.488 139.031 272.072L134.279 270.584C131.879 269.848 130.023 268.616 128.711 266.888C127.431 265.16 126.791 263.128 126.791 260.792C126.791 258.904 127.207 257.272 128.039 255.896C128.903 254.488 130.103 253.4 131.639 252.632C133.175 251.832 134.983 251.432 137.063 251.432C140.135 251.432 142.599 252.296 144.455 254.024C146.311 255.72 147.255 257.992 147.287 260.84H142.967C142.967 259.112 142.439 257.768 141.383 256.808C140.359 255.816 138.903 255.32 137.015 255.32C135.159 255.32 133.703 255.768 132.647 256.664C131.623 257.56 131.111 258.808 131.111 260.408C131.111 261.848 131.495 263.096 132.263 264.152C133.031 265.208 134.135 265.96 135.575 266.408L140.375 267.944C142.711 268.68 144.519 269.928 145.799 271.688C147.079 273.448 147.719 275.512 147.719 277.88C147.719 279.8 147.271 281.48 146.375 282.92C145.479 284.36 144.215 285.48 142.583 286.28C140.983 287.08 139.111 287.48 136.967 287.48ZM165.556 287.48C163.444 287.48 161.62 287.08 160.084 286.28C158.58 285.48 157.412 284.328 156.58 282.824C155.78 281.288 155.38 279.48 155.38 277.4V261.56C155.38 259.448 155.78 257.64 156.58 256.136C157.412 254.632 158.58 253.48 160.084 252.68C161.62 251.88 163.444 251.48 165.556 251.48C167.668 251.48 169.476 251.88 170.98 252.68C172.516 253.48 173.684 254.632 174.484 256.136C175.316 257.64 175.732 259.432 175.732 261.512V277.4C175.732 279.48 175.316 281.288 174.484 282.824C173.684 284.328 172.516 285.48 170.98 286.28C169.476 287.08 167.668 287.48 165.556 287.48ZM165.556 283.592C167.444 283.592 168.884 283.064 169.876 282.008C170.9 280.92 171.412 279.384 171.412 277.4V261.56C171.412 259.576 170.9 258.056 169.876 257C168.884 255.912 167.444 255.368 165.556 255.368C163.7 255.368 162.26 255.912 161.236 257C160.212 258.056 159.7 259.576 159.7 261.56V277.4C159.7 279.384 160.212 280.92 161.236 282.008C162.26 283.064 163.7 283.592 165.556 283.592ZM184.498 287V251.912H205.138V255.848H188.722V267.512H203.89V271.448H188.818V287H184.498ZM220.959 287V255.848H211.359V251.912H234.879V255.848H225.279V287H220.959ZM242.732 287L238.7 251.96H242.828L245.468 277.88C245.532 278.584 245.596 279.32 245.66 280.088C245.724 280.824 245.772 281.528 245.804 282.2C245.868 282.872 245.9 283.432 245.9 283.88C245.964 283.432 246.012 282.872 246.044 282.2C246.108 281.528 246.172 280.824 246.236 280.088C246.332 279.32 246.428 278.584 246.524 277.88L249.788 251.96H254.252L257.228 277.88C257.324 278.584 257.404 279.32 257.468 280.088C257.564 280.824 257.644 281.528 257.708 282.2C257.804 282.872 257.868 283.432 257.9 283.88C257.932 283.432 257.964 282.872 257.996 282.2C258.06 281.528 258.124 280.824 258.188 280.088C258.284 279.32 258.364 278.584 258.428 277.88L261.164 251.96H265.1L260.972 287H255.548L252.572 260.6C252.508 259.864 252.428 259.144 252.332 258.44C252.268 257.736 252.204 257.08 252.14 256.472C252.076 255.864 252.028 255.368 251.996 254.984C251.964 255.368 251.9 255.864 251.804 256.472C251.74 257.08 251.676 257.736 251.612 258.44C251.548 259.144 251.468 259.864 251.372 260.6L248.156 287H242.732ZM268.681 287L277.801 251.96H283.609L292.681 287H288.313L286.009 277.688H275.401L273.097 287H268.681ZM276.265 274.04H285.097L282.409 263.24C281.897 261.192 281.497 259.48 281.209 258.104C280.921 256.728 280.745 255.832 280.681 255.416C280.617 255.832 280.441 256.728 280.153 258.104C279.865 259.48 279.465 261.176 278.953 263.192L276.265 274.04ZM299.479 287V251.96H310.327C312.407 251.96 314.231 252.392 315.799 253.256C317.367 254.088 318.583 255.256 319.447 256.76C320.311 258.264 320.743 260.024 320.743 262.04C320.743 264.408 320.119 266.44 318.871 268.136C317.655 269.832 315.991 271 313.879 271.64L321.223 287H316.135L309.415 272.12H303.799V287H299.479ZM303.799 268.232H310.327C312.119 268.232 313.559 267.672 314.647 266.552C315.735 265.4 316.279 263.896 316.279 262.04C316.279 260.152 315.735 258.648 314.647 257.528C313.559 256.408 312.119 255.848 310.327 255.848H303.799V268.232ZM328.644 287V251.96H348.804V255.896H332.916V266.744H347.124V270.632H332.916V283.064H348.804V287H328.644Z" fill="#C2983D"/>
<path d="M223.849 119.72C221.982 119.72 220.009 119.427 217.929 118.84C215.902 118.307 214.089 117.4 212.489 116.12C210.942 114.84 209.902 113.133 209.369 111C209.315 110.733 209.262 110.44 209.209 110.12C209.209 109.8 209.209 109.48 209.209 109.16C209.209 107.507 209.582 105.907 210.329 104.36C211.075 102.813 211.982 101.64 213.049 100.84H213.129C213.235 100.84 213.369 100.973 213.529 101.24C213.742 101.453 213.742 101.613 213.529 101.72C212.995 102.253 212.595 102.867 212.329 103.56C212.115 104.2 212.009 104.893 212.009 105.64C212.009 106.653 212.169 107.693 212.489 108.76C212.862 109.773 213.315 110.653 213.849 111.4C215.182 113.267 217.022 114.76 219.369 115.88C221.769 116.947 224.115 117.48 226.409 117.48C229.555 117.48 231.982 116.547 233.689 114.68C235.449 112.813 236.329 110.52 236.329 107.8C236.329 106.147 236.009 104.493 235.369 102.84C234.515 100.547 233.369 98.3067 231.929 96.12C230.542 93.88 229.262 91.6933 228.089 89.56C227.075 87.64 226.569 85.6933 226.569 83.72C226.569 81.64 227.209 79.64 228.489 77.72C229.769 76.0133 231.449 74.6533 233.529 73.64C235.662 72.5733 237.822 72.04 240.009 72.04C241.502 72.04 242.942 72.3067 244.329 72.84C245.715 73.3733 246.969 74.2533 248.089 75.48C248.409 75.96 248.569 76.5733 248.569 77.32C248.569 78.3867 248.355 79.2133 247.929 79.8C247.449 80.4933 246.915 81.4 246.329 82.52C245.742 83.64 245.395 84.4133 245.289 84.84C245.182 84.8933 244.915 85 244.489 85.16C244.115 85.2667 243.875 85.24 243.769 85.08C243.982 84.6533 244.275 83.88 244.649 82.76C245.022 81.64 245.209 80.6267 245.209 79.72C245.209 79.1333 245.182 78.4933 245.129 77.8C245.129 77.0533 244.782 76.4133 244.089 75.88C243.449 75.2933 242.622 74.7867 241.609 74.36C240.595 73.9333 239.369 73.72 237.929 73.72C234.995 73.72 232.755 74.5733 231.209 76.28C229.662 77.9867 228.889 79.8533 228.889 81.88C228.889 82.8933 229.102 83.9067 229.529 84.92C230.329 86.84 231.449 88.6533 232.889 90.36C234.329 92.0667 235.742 93.8267 237.129 95.64C238.569 97.4 239.689 99.32 240.489 101.4C241.022 102.787 241.289 104.2 241.289 105.64C241.289 107.72 240.755 109.613 239.689 111.32C238.675 113.027 237.289 114.52 235.529 115.8C233.822 117.027 231.955 117.987 229.929 118.68C227.902 119.373 225.875 119.72 223.849 119.72Z" fill="#C2983D"/>
<path d="M245.417 142.797C243.551 142.797 241.577 142.504 239.497 141.917C237.471 141.384 235.657 140.477 234.057 139.197C232.511 137.917 231.471 136.21 230.937 134.077C230.884 133.81 230.831 133.517 230.777 133.197C230.777 132.877 230.777 132.557 230.777 132.237C230.777 130.584 231.151 128.984 231.897 127.437C232.644 125.89 233.551 124.717 234.617 123.917H234.697C234.804 123.917 234.937 124.05 235.097 124.317C235.311 124.53 235.311 124.69 235.097 124.797C234.564 125.33 234.164 125.944 233.897 126.637C233.684 127.277 233.577 127.97 233.577 128.717C233.577 129.73 233.737 130.77 234.057 131.837C234.431 132.85 234.884 133.73 235.417 134.477C236.751 136.344 238.591 137.837 240.937 138.957C243.337 140.024 245.684 140.557 247.977 140.557C251.124 140.557 253.551 139.624 255.257 137.757C257.017 135.89 257.897 133.597 257.897 130.877C257.897 129.224 257.577 127.57 256.937 125.917C256.084 123.624 254.937 121.384 253.497 119.197C252.111 116.957 250.831 114.77 249.657 112.637C248.644 110.717 248.137 108.77 248.137 106.797C248.137 104.717 248.777 102.717 250.057 100.797C251.337 99.0902 253.017 97.7302 255.097 96.7169C257.231 95.6502 259.391 95.1169 261.577 95.1169C263.071 95.1169 264.511 95.3836 265.897 95.9169C267.284 96.4502 268.537 97.3302 269.657 98.5569C269.977 99.0369 270.137 99.6502 270.137 100.397C270.137 101.464 269.924 102.29 269.497 102.877C269.017 103.57 268.484 104.477 267.897 105.597C267.311 106.717 266.964 107.49 266.857 107.917C266.751 107.97 266.484 108.077 266.057 108.237C265.684 108.344 265.444 108.317 265.337 108.157C265.551 107.73 265.844 106.957 266.217 105.837C266.591 104.717 266.777 103.704 266.777 102.797C266.777 102.21 266.751 101.57 266.697 100.877C266.697 100.13 266.351 99.4902 265.657 98.9569C265.017 98.3702 264.191 97.8636 263.177 97.4369C262.164 97.0102 260.937 96.7969 259.497 96.7969C256.564 96.7969 254.324 97.6502 252.777 99.3569C251.231 101.064 250.457 102.93 250.457 104.957C250.457 105.97 250.671 106.984 251.097 107.997C251.897 109.917 253.017 111.73 254.457 113.437C255.897 115.144 257.311 116.904 258.697 118.717C260.137 120.477 261.257 122.397 262.057 124.477C262.591 125.864 262.857 127.277 262.857 128.717C262.857 130.797 262.324 132.69 261.257 134.397C260.244 136.104 258.857 137.597 257.097 138.877C255.391 140.104 253.524 141.064 251.497 141.757C249.471 142.45 247.444 142.797 245.417 142.797Z" fill="#C2983D"/>
</svg>
