<svg width="50" height="50" viewBox="0 0 50 50" fill="none" xmlns="http://www.w3.org/2000/svg">
<path d="M50 25C50 38.8071 38.8071 50 25 50C11.1929 50 0 38.8071 0 25C0 11.1929 11.1929 0 25 0C38.8071 0 50 11.1929 50 25Z" fill="#252423"/>
<path d="M12.4493 11.6699C12.208 11.9111 11.9634 12.0805 11.7153 12.1779C11.4641 12.2722 11.2206 12.296 10.9848 12.2493C10.7459 12.1995 10.5276 12.0757 10.3299 11.878L10.853 11.3548C11.01 11.5117 11.191 11.5786 11.3961 11.5555C11.5981 11.5293 11.8001 11.4152 12.0022 11.2131C12.1913 11.024 12.2956 10.8318 12.3153 10.6363C12.335 10.4409 12.268 10.2662 12.1142 10.1125C11.9855 9.98378 11.8366 9.90985 11.6675 9.89066C11.5016 9.86822 11.333 9.90819 11.1615 10.0106L10.5846 10.3333C10.2516 10.5219 9.92711 10.6016 9.61106 10.5724C9.29514 10.5368 9.01634 10.3982 8.77468 10.1565C8.58637 9.96822 8.4656 9.75944 8.41238 9.53019C8.35916 9.30095 8.37481 9.0656 8.45933 8.82415C8.54386 8.5827 8.69695 8.35115 8.91861 8.12949C9.24458 7.80352 9.59009 7.62748 9.95516 7.60138C10.3235 7.57201 10.6521 7.69851 10.9409 7.98085L10.4129 8.50892C10.2622 8.35828 10.094 8.29111 9.9082 8.30742C9.72253 8.31733 9.54006 8.41193 9.36077 8.59121C9.18801 8.76398 9.09353 8.94006 9.07734 9.11945C9.05801 9.2957 9.12053 9.45602 9.26491 9.60039C9.39358 9.72907 9.54086 9.80463 9.70673 9.82707C9.87586 9.84625 10.0477 9.80622 10.2223 9.70697L10.8088 9.38406C11.1386 9.19233 11.4615 9.11426 11.7774 9.14985C12.0934 9.18544 12.3737 9.32564 12.6185 9.57044C12.81 9.76189 12.9322 9.97863 12.9852 10.2207C13.035 10.4596 13.016 10.7046 12.9281 10.9557C12.837 11.2037 12.6774 11.4417 12.4493 11.6699Z" fill="#C2983D"/>
<path d="M15.8521 9.19383L13.6941 5.45606L12.592 6.09236L12.25 5.5L15.0646 3.875L15.4066 4.46736L14.3045 5.10365L16.4625 8.84142L15.8521 9.19383Z" fill="#C2983D"/>
<path d="M18.0441 7.79579L17.886 2.66177L18.7533 2.42939L21.1834 6.95463L20.5176 7.13301L19.9209 5.98107L18.6567 6.31982L18.7159 7.61578L18.0441 7.79579ZM18.6211 5.69828L19.6349 5.42662L18.9555 4.11248C18.8364 3.87967 18.7343 3.67776 18.6492 3.50674C18.567 3.33022 18.5109 3.21052 18.4809 3.14763C18.4865 3.21706 18.4977 3.34877 18.5148 3.54274C18.5307 3.73231 18.5426 3.95602 18.5506 4.21387L18.6211 5.69828Z" fill="#C2983D"/>
<path d="M23.375 6.625V1.625H24.2986L24.8056 3.22774C24.8565 3.37842 24.9005 3.52454 24.9375 3.6661C24.9745 3.80308 25 3.90582 25.0139 3.97431C25.0324 3.90582 25.0579 3.80308 25.0903 3.6661C25.1273 3.52454 25.169 3.37842 25.2153 3.22774L25.7014 1.625H26.625V6.625H25.9167V4.94007C25.9167 4.72546 25.9213 4.48801 25.9306 4.22774C25.9444 3.9629 25.963 3.69806 25.9861 3.43322C26.0093 3.16381 26.0324 2.90811 26.0556 2.6661C26.0787 2.41952 26.0995 2.20491 26.1181 2.02226L25.3681 4.45377H24.6458L23.8819 2.02226C23.9051 2.20034 23.9282 2.40811 23.9514 2.64555C23.9745 2.87842 23.9954 3.12728 24.0139 3.39212C24.0324 3.65696 24.0486 3.92409 24.0625 4.19349C24.0764 4.45833 24.0833 4.70719 24.0833 4.94007V6.625H23.375Z" fill="#C2983D"/>
<path d="M28.875 7.07963L30.1691 2.25L31.7587 2.67593C32.0735 2.76028 32.3302 2.89289 32.5289 3.07376C32.732 3.25581 32.8661 3.47374 32.9311 3.72754C33.0018 3.97811 32.9975 4.25115 32.9184 4.54667C32.8404 4.83777 32.7075 5.07636 32.5198 5.26243C32.3322 5.44851 32.1071 5.5702 31.8446 5.62751C31.5821 5.68481 31.2935 5.67129 30.9787 5.58694L30.1074 5.35348L29.5933 7.2721L28.875 7.07963ZM30.2794 4.71173L31.1506 4.94519C31.3989 5.01172 31.6157 4.99182 31.8011 4.88547C31.992 4.77591 32.1206 4.59763 32.1867 4.35063C32.2541 4.09923 32.2319 3.88055 32.1202 3.69461C32.0128 3.50985 31.835 3.38421 31.5867 3.31767L30.7154 3.08421L30.2794 4.71173Z" fill="#C2983D"/>
<path d="M33 8.45513L35.5 4.125L38.3146 5.75L37.9858 6.31944L35.8667 5.09596L35.1578 6.32381L37.0473 7.41472L36.7219 7.97823L34.8324 6.88732L34.0242 8.2872L36.1433 9.51069L35.8146 10.0801L33 8.45513Z" fill="#C2983D"/>
<path d="M37.125 11.1605L40.6605 7.625L41.7874 8.7519C42.0138 8.97827 42.1671 9.2187 42.2472 9.47319C42.3306 9.72445 42.3407 9.9735 42.2776 10.2203C42.2177 10.4705 42.0829 10.7005 41.873 10.9103C41.6373 11.146 41.3699 11.2887 41.0709 11.3384C40.7784 11.3882 40.4916 11.3436 40.2106 11.2046L39.4231 13.4586L38.8178 12.8534L39.6163 10.7459L39.1094 10.239L37.6565 11.692L37.125 11.1605ZM39.5695 9.77894L40.165 10.3744C40.3421 10.5515 40.5349 10.6409 40.7432 10.6426C40.9547 10.641 41.1476 10.5531 41.322 10.3787C41.5028 10.1979 41.5924 10.0033 41.5907 9.79504C41.5891 9.58673 41.4996 9.39401 41.3225 9.21685L40.7271 8.62141L39.5695 9.77894Z" fill="#C2983D"/>
<path d="M8.91372 41.8242C8.6725 41.583 8.50317 41.3384 8.40573 41.0903C8.31143 40.8391 8.28763 40.5956 8.33433 40.3598C8.38417 40.1209 8.50795 39.9026 8.70568 39.7049L9.22886 40.228C9.07194 40.385 9.00501 40.566 9.02809 40.7711C9.0543 40.9731 9.16845 41.1751 9.37056 41.3772C9.55962 41.5663 9.75188 41.6706 9.94732 41.6903C10.1428 41.71 10.3174 41.643 10.4712 41.4892C10.5999 41.3605 10.6738 41.2116 10.693 41.0425C10.7154 40.8766 10.6754 40.708 10.5731 40.5365L10.2503 39.9596C10.0617 39.6266 9.98203 39.3021 10.0112 38.9861C10.0468 38.6701 10.1854 38.3913 10.4271 38.1497C10.6154 37.9614 10.8242 37.8406 11.0534 37.7874C11.2827 37.7342 11.518 37.7498 11.7595 37.8343C12.0009 37.9189 12.2325 38.0719 12.4541 38.2936C12.7801 38.6196 12.9562 38.9651 12.9823 39.3302C13.0116 39.6985 12.8851 40.0271 12.6028 40.3159L12.0747 39.7879C12.2254 39.6372 12.2925 39.469 12.2762 39.2832C12.2663 39.0975 12.1717 38.9151 11.9924 38.7358C11.8197 38.563 11.6436 38.4685 11.4642 38.4523C11.2879 38.433 11.1276 38.4955 10.9832 38.6399C10.8546 38.7686 10.779 38.9159 10.7566 39.0817C10.7374 39.2509 10.7774 39.4227 10.8767 39.5973L11.1996 40.1838C11.3913 40.5136 11.4694 40.8365 11.4338 41.1524C11.3982 41.4684 11.258 41.7487 11.0132 41.9935C10.8217 42.185 10.605 42.3072 10.363 42.3602C10.1241 42.41 9.87905 42.391 9.62794 42.3031C9.37997 42.212 9.1419 42.0524 8.91372 41.8242Z" fill="#C2983D"/>
<path d="M12.9073 44.8926C12.6173 44.7252 12.3935 44.5318 12.2358 44.3125C12.0846 44.0918 12.0048 43.8558 11.9963 43.6046C11.9943 43.352 12.0656 43.1006 12.21 42.8504L13.29 40.9798C13.4367 40.7257 13.6188 40.5383 13.8363 40.4176C14.0581 40.2993 14.3013 40.2524 14.5658 40.2768C14.8368 40.2998 15.1173 40.3951 15.4073 40.5625C15.6973 40.7299 15.9179 40.924 16.069 41.1447C16.2267 41.364 16.3077 41.5981 16.3119 41.8469C16.3203 42.0981 16.2524 42.3488 16.1079 42.599L15.0246 44.4754C14.8801 44.7256 14.6959 44.9117 14.4719 45.0338C14.2543 45.1546 14.0101 45.2034 13.739 45.1804C13.4745 45.156 13.1973 45.0601 12.9073 44.8926ZM13.2273 44.3384C13.4618 44.4738 13.6722 44.5182 13.8582 44.4717C14.0508 44.4238 14.2093 44.2921 14.3337 44.0765L15.4137 42.2059C15.5404 41.9865 15.5752 41.7834 15.5182 41.5965C15.4655 41.4121 15.3218 41.2522 15.0873 41.1168C14.857 40.9838 14.6467 40.9394 14.4564 40.9834C14.266 41.0275 14.1075 41.1592 13.9809 41.3786L12.9009 43.2492C12.7764 43.4648 12.7416 43.6679 12.7964 43.8586C12.8534 44.0455 12.997 44.2054 13.2273 44.3384Z" fill="#C2983D"/>
<path d="M16.125 46.5796L17.4191 41.75L20.5584 42.5912L20.3813 43.2519L17.9895 42.611L17.6036 44.0513L19.8103 44.6426L19.6333 45.3032L17.4408 44.7158L16.8867 46.7837L16.125 46.5796Z" fill="#C2983D"/>
<path d="M21.9655 47.954L22.3416 43.6544L21.0739 43.5435L21.1335 42.8621L24.3711 43.1453L24.3115 43.8267L23.0438 43.7158L22.6676 48.0154L21.9655 47.954Z" fill="#C2983D"/>
<path d="M26.6824 48.092L25.7883 43.1511L26.3511 43.1019L26.9482 46.6524C26.9639 46.7427 26.9785 46.8423 26.9919 46.9511C27.0092 47.0596 27.0243 47.166 27.0373 47.2703C27.0542 47.3742 27.0661 47.4649 27.0728 47.5422C27.0738 47.4642 27.0736 47.3725 27.0722 47.2672C27.0707 47.1619 27.0691 47.0544 27.0673 46.9445C27.0694 46.8343 27.0722 46.7332 27.0759 46.6412L27.1286 43.0339L27.7088 42.9831L28.364 46.5285C28.3796 46.6188 28.3961 46.7182 28.4134 46.8267C28.4346 46.9349 28.4555 47.0408 28.4763 47.1444C28.4971 47.248 28.5128 47.3383 28.5234 47.4153C28.5205 47.3376 28.5164 47.2463 28.5111 47.1413C28.5097 47.036 28.5081 46.9285 28.5063 46.8186C28.5044 46.7088 28.5034 46.608 28.5032 46.5164L28.4805 42.9156L29.0259 42.8679L28.9859 47.8905L28.2606 47.9539L27.6013 44.3607C27.5852 44.2659 27.5687 44.1665 27.5518 44.0625C27.5346 43.9541 27.5177 43.8501 27.5012 43.7507C27.4843 43.6468 27.469 43.561 27.4553 43.4935C27.4574 43.562 27.4591 43.649 27.4606 43.7543C27.4616 43.855 27.463 43.9603 27.4648 44.0702C27.4662 44.1755 27.4653 44.2764 27.4621 44.3729L27.4135 48.0281L26.6824 48.092Z" fill="#C2983D"/>
<path d="M30.5441 47.4208L30.386 42.2868L31.2533 42.0544L33.6834 46.5796L33.0176 46.758L32.4209 45.6061L31.1567 45.9448L31.2159 47.2408L30.5441 47.4208ZM31.1211 45.3233L32.1349 45.0516L31.4555 43.7375C31.3364 43.5047 31.2343 43.3028 31.1492 43.1317C31.067 42.9552 31.0109 42.8355 30.9809 42.7726C30.9865 42.8421 30.9977 42.9738 31.0148 43.1677C31.0307 43.3573 31.0426 43.581 31.0506 43.8389L31.1211 45.3233Z" fill="#C2983D"/>
<path d="M35.375 45.8301L32.875 41.5L34.2552 40.7032C34.5324 40.5431 34.8043 40.4573 35.0709 40.4458C35.3351 40.4303 35.5783 40.4849 35.8004 40.6098C36.0265 40.7323 36.2138 40.9221 36.3622 41.1792C36.5289 41.4679 36.5975 41.763 36.5681 42.0647C36.5404 42.3601 36.4231 42.6256 36.2162 42.861L38.1896 44.2051L37.4483 44.6331L35.6193 43.3164L34.9985 43.6748L36.0259 45.4543L35.375 45.8301ZM34.6732 43.1113L35.4024 42.6903C35.6194 42.565 35.7556 42.402 35.8112 42.2012C35.8644 41.9965 35.8294 41.7873 35.7061 41.5738C35.5782 41.3524 35.4135 41.2155 35.2118 41.1632C35.0102 41.1109 34.8009 41.1473 34.5839 41.2726L33.8547 41.6936L34.6732 43.1113Z" fill="#C2983D"/>
<path d="M39.9105 42.9586L36.375 39.4231L38.6731 37.125L39.138 37.5899L37.4078 39.3202L38.4103 40.3228L39.9531 38.78L40.4132 39.2401L38.8704 40.7829L40.0134 41.9259L41.7437 40.1956L42.2086 40.6605L39.9105 42.9586Z" fill="#C2983D"/>
<path d="M20.1303 28.2598C19.5558 28.2598 18.9486 28.1821 18.3085 28.0266C17.6848 27.8853 17.1268 27.645 16.6344 27.3058C16.1584 26.9666 15.8384 26.5144 15.6742 25.9491C15.6578 25.8784 15.6414 25.8007 15.625 25.7159C15.625 25.6311 15.625 25.5463 15.625 25.4615C15.625 25.0234 15.7399 24.5994 15.9697 24.1895C16.1994 23.7797 16.4785 23.4688 16.8067 23.2568H16.8313C16.8642 23.2568 16.9052 23.2921 16.9544 23.3628C17.0201 23.4193 17.0201 23.4617 16.9544 23.49C16.7903 23.6313 16.6672 23.7938 16.5851 23.9775C16.5195 24.1471 16.4867 24.3309 16.4867 24.5287C16.4867 24.7972 16.5359 25.0728 16.6344 25.3555C16.7493 25.624 16.8888 25.8572 17.0529 26.0551C17.4632 26.5497 18.0295 26.9454 18.7516 27.2422C19.4902 27.5249 20.2123 27.6662 20.9181 27.6662C21.8864 27.6662 22.6332 27.4189 23.1584 26.9242C23.7 26.4296 23.9708 25.8219 23.9708 25.1011C23.9708 24.663 23.8724 24.2249 23.6754 23.7867C23.4128 23.179 23.0599 22.5854 22.6168 22.006C22.1901 21.4124 21.7962 20.833 21.4351 20.2677C21.1232 19.7589 20.9673 19.243 20.9673 18.7201C20.9673 18.1689 21.1643 17.6389 21.5582 17.1302C21.9521 16.6779 22.4691 16.3175 23.1092 16.049C23.7657 15.7663 24.4304 15.625 25.1033 15.625C25.5629 15.625 26.006 15.6957 26.4327 15.837C26.8595 15.9783 27.2452 16.2115 27.5898 16.5366C27.6883 16.6638 27.7375 16.8263 27.7375 17.0242C27.7375 17.3068 27.6719 17.5259 27.5406 17.6813C27.3929 17.8651 27.2287 18.1053 27.0482 18.4021C26.8677 18.6989 26.761 18.9038 26.7282 19.0169C26.6953 19.031 26.6133 19.0593 26.482 19.1017C26.3671 19.13 26.2932 19.1229 26.2604 19.0805C26.326 18.9674 26.4163 18.7625 26.5312 18.4657C26.6461 18.1689 26.7035 17.9004 26.7035 17.6601C26.7035 17.5047 26.6953 17.3351 26.6789 17.1514C26.6789 16.9535 26.5722 16.7839 26.3589 16.6426C26.1619 16.4871 25.9075 16.3528 25.5957 16.2398C25.2838 16.1267 24.9064 16.0702 24.4632 16.0702C23.5605 16.0702 22.8712 16.2963 22.3952 16.7486C21.9193 17.2008 21.6813 17.6955 21.6813 18.2325C21.6813 18.501 21.7469 18.7696 21.8782 19.0381C22.1244 19.5469 22.4691 20.0274 22.9122 20.4796C23.3554 20.9319 23.7903 21.3983 24.217 21.8788C24.6602 22.3452 25.0048 22.854 25.251 23.4052C25.4151 23.7726 25.4972 24.1471 25.4972 24.5287C25.4972 25.0799 25.3331 25.5816 25.0048 26.0339C24.693 26.4861 24.2663 26.8818 23.7246 27.221C23.1994 27.5461 22.625 27.8005 22.0013 27.9842C21.3776 28.1679 20.754 28.2598 20.1303 28.2598Z" fill="#C2983D"/>
<path d="M26.7677 34.375C26.1933 34.375 25.586 34.2973 24.9459 34.1418C24.3223 34.0005 23.7642 33.7602 23.2718 33.421C22.7959 33.0818 22.4758 32.6296 22.3117 32.0643C22.2953 31.9936 22.2789 31.9159 22.2625 31.8311C22.2625 31.7463 22.2625 31.6615 22.2625 31.5767C22.2625 31.1386 22.3774 30.7146 22.6071 30.3047C22.8369 29.8949 23.1159 29.5839 23.4442 29.372H23.4688C23.5016 29.372 23.5427 29.4073 23.5919 29.478C23.6575 29.5345 23.6575 29.5769 23.5919 29.6051C23.4278 29.7465 23.3047 29.909 23.2226 30.0927C23.157 30.2623 23.1241 30.4461 23.1241 30.6439C23.1241 30.9124 23.1734 31.188 23.2718 31.4707C23.3867 31.7392 23.5262 31.9724 23.6904 32.1703C24.1007 32.6649 24.6669 33.0606 25.3891 33.3574C26.1276 33.6401 26.8498 33.7814 27.5555 33.7814C28.5239 33.7814 29.2707 33.5341 29.7959 33.0394C30.3375 32.5448 30.6083 31.9371 30.6083 31.2163C30.6083 30.7782 30.5098 30.3401 30.3129 29.9019C30.0503 29.2942 29.6974 28.7006 29.2543 28.1212C28.8275 27.5276 28.4336 26.9482 28.0725 26.3828C27.7607 25.8741 27.6048 25.3582 27.6048 24.8353C27.6048 24.2841 27.8017 23.7541 28.1956 23.2453C28.5895 22.7931 29.1065 22.4327 29.7466 22.1642C30.4031 21.8815 31.0679 21.7402 31.7408 21.7402C32.2003 21.7402 32.6435 21.8109 33.0702 21.9522C33.4969 22.0935 33.8826 22.3267 34.2273 22.6518C34.3258 22.779 34.375 22.9415 34.375 23.1394C34.375 23.422 34.3093 23.6411 34.178 23.7965C34.0303 23.9803 33.8662 24.2205 33.6857 24.5173C33.5051 24.8141 33.3984 25.019 33.3656 25.1321C33.3328 25.1462 33.2507 25.1745 33.1194 25.2169C33.0045 25.2452 32.9307 25.2381 32.8979 25.1957C32.9635 25.0826 33.0538 24.8777 33.1687 24.5809C33.2836 24.2841 33.341 24.0156 33.341 23.7753C33.341 23.6199 33.3328 23.4503 33.3164 23.2665C33.3164 23.0687 33.2097 22.8991 32.9963 22.7578C32.7994 22.6023 32.545 22.468 32.2332 22.355C31.9213 22.2419 31.5438 22.1854 31.1007 22.1854C30.198 22.1854 29.5087 22.4115 29.0327 22.8638C28.5567 23.316 28.3187 23.8107 28.3187 24.3477C28.3187 24.6162 28.3844 24.8848 28.5157 25.1533C28.7619 25.6621 29.1065 26.1426 29.5497 26.5948C29.9928 27.0471 30.4278 27.5135 30.8545 27.994C31.2976 28.4604 31.6423 28.9692 31.8885 29.5204C32.0526 29.8878 32.1347 30.2623 32.1347 30.6439C32.1347 31.1951 31.9705 31.6968 31.6423 32.1491C31.3305 32.6013 30.9037 32.997 30.3621 33.3362C29.8369 33.6613 29.2625 33.9157 28.6388 34.0994C28.0151 34.2831 27.3914 34.375 26.7677 34.375Z" fill="#C2983D"/>
</svg>
