<svg width="27" height="27" viewBox="0 0 27 27" fill="none" xmlns="http://www.w3.org/2000/svg">
<mask id="path-1-outside-1_55_7" maskUnits="userSpaceOnUse" x="0" y="0" width="27" height="27" fill="black">
<rect fill="white" width="27" height="27"/>
<path d="M26 13.5C26 20.4036 20.4036 26 13.5 26C6.59644 26 1 20.4036 1 13.5C1 6.59644 6.59644 1 13.5 1C20.4036 1 26 6.59644 26 13.5Z"/>
<path d="M8.9622 16.43C8.49554 16.43 8.0022 16.3567 7.4822 16.21C6.97554 16.0767 6.5222 15.85 6.1222 15.53C5.73554 15.21 5.47554 14.7833 5.3422 14.25C5.32887 14.1833 5.31554 14.11 5.3022 14.03C5.3022 13.95 5.3022 13.87 5.3022 13.79C5.3022 13.3767 5.39554 12.9767 5.5822 12.59C5.76887 12.2033 5.99554 11.91 6.2622 11.71H6.2822C6.30887 11.71 6.3422 11.7433 6.3822 11.81C6.43554 11.8633 6.43554 11.9033 6.3822 11.93C6.24887 12.0633 6.14887 12.2167 6.0822 12.39C6.02887 12.55 6.0022 12.7233 6.0022 12.91C6.0022 13.1633 6.0422 13.4233 6.1222 13.69C6.21554 13.9433 6.32887 14.1633 6.4622 14.35C6.79554 14.8167 7.25554 15.19 7.8422 15.47C8.4422 15.7367 9.02887 15.87 9.6022 15.87C10.3889 15.87 10.9955 15.6367 11.4222 15.17C11.8622 14.7033 12.0822 14.13 12.0822 13.45C12.0822 13.0367 12.0022 12.6233 11.8422 12.21C11.6289 11.6367 11.3422 11.0767 10.9822 10.53C10.6355 9.97 10.3155 9.42333 10.0222 8.89C9.76887 8.41 9.6422 7.92333 9.6422 7.43C9.6422 6.91 9.8022 6.41 10.1222 5.93C10.4422 5.50333 10.8622 5.16333 11.3822 4.91C11.9155 4.64333 12.4555 4.51 13.0022 4.51C13.3755 4.51 13.7355 4.57667 14.0822 4.71C14.4289 4.84333 14.7422 5.06333 15.0222 5.37C15.1022 5.49 15.1422 5.64333 15.1422 5.83C15.1422 6.09667 15.0889 6.30333 14.9822 6.45C14.8622 6.62333 14.7289 6.85 14.5822 7.13C14.4355 7.41 14.3489 7.60333 14.3222 7.71C14.2955 7.72333 14.2289 7.75 14.1222 7.79C14.0289 7.81667 13.9689 7.81 13.9422 7.77C13.9955 7.66333 14.0689 7.47 14.1622 7.19C14.2555 6.91 14.3022 6.65667 14.3022 6.43C14.3022 6.28333 14.2955 6.12333 14.2822 5.95C14.2822 5.76333 14.1955 5.60333 14.0222 5.47C13.8622 5.32333 13.6555 5.19667 13.4022 5.09C13.1489 4.98333 12.8422 4.93 12.4822 4.93C11.7489 4.93 11.1889 5.14333 10.8022 5.57C10.4155 5.99667 10.2222 6.46333 10.2222 6.97C10.2222 7.22333 10.2755 7.47667 10.3822 7.73C10.5822 8.21 10.8622 8.66333 11.2222 9.09C11.5822 9.51667 11.9355 9.95667 12.2822 10.41C12.6422 10.85 12.9222 11.33 13.1222 11.85C13.2555 12.1967 13.3222 12.55 13.3222 12.91C13.3222 13.43 13.1889 13.9033 12.9222 14.33C12.6689 14.7567 12.3222 15.13 11.8822 15.45C11.4555 15.7567 10.9889 15.9967 10.4822 16.17C9.97554 16.3433 9.46887 16.43 8.9622 16.43Z"/>
<path d="M14.3544 22.1992C13.8877 22.1992 13.3944 22.1259 12.8744 21.9792C12.3677 21.8459 11.9144 21.6192 11.5144 21.2992C11.1277 20.9792 10.8677 20.5526 10.7344 20.0192C10.721 19.9526 10.7077 19.8792 10.6944 19.7992C10.6944 19.7192 10.6944 19.6392 10.6944 19.5592C10.6944 19.1459 10.7877 18.7459 10.9744 18.3592C11.161 17.9726 11.3877 17.6792 11.6544 17.4792H11.6744C11.701 17.4792 11.7344 17.5126 11.7744 17.5792C11.8277 17.6326 11.8277 17.6726 11.7744 17.6992C11.641 17.8326 11.541 17.9859 11.4744 18.1592C11.421 18.3192 11.3944 18.4926 11.3944 18.6792C11.3944 18.9326 11.4344 19.1926 11.5144 19.4592C11.6077 19.7126 11.721 19.9326 11.8544 20.1192C12.1877 20.5859 12.6477 20.9592 13.2344 21.2392C13.8344 21.5059 14.421 21.6392 14.9944 21.6392C15.781 21.6392 16.3877 21.4059 16.8144 20.9392C17.2544 20.4726 17.4744 19.8992 17.4744 19.2192C17.4744 18.8059 17.3944 18.3926 17.2344 17.9792C17.021 17.4059 16.7344 16.8459 16.3744 16.2992C16.0277 15.7392 15.7077 15.1926 15.4144 14.6592C15.161 14.1792 15.0344 13.6926 15.0344 13.1992C15.0344 12.6792 15.1944 12.1792 15.5144 11.6992C15.8344 11.2726 16.2544 10.9326 16.7744 10.6792C17.3077 10.4126 17.8477 10.2792 18.3944 10.2792C18.7677 10.2792 19.1277 10.3459 19.4744 10.4792C19.821 10.6126 20.1344 10.8326 20.4144 11.1392C20.4944 11.2592 20.5344 11.4126 20.5344 11.5992C20.5344 11.8659 20.481 12.0726 20.3744 12.2192C20.2544 12.3926 20.121 12.6192 19.9744 12.8992C19.8277 13.1792 19.741 13.3726 19.7144 13.4792C19.6877 13.4926 19.621 13.5192 19.5144 13.5592C19.421 13.5859 19.361 13.5792 19.3344 13.5392C19.3877 13.4326 19.461 13.2392 19.5544 12.9592C19.6477 12.6792 19.6944 12.4259 19.6944 12.1992C19.6944 12.0526 19.6877 11.8926 19.6744 11.7192C19.6744 11.5326 19.5877 11.3726 19.4144 11.2392C19.2544 11.0926 19.0477 10.9659 18.7944 10.8592C18.541 10.7526 18.2344 10.6992 17.8744 10.6992C17.141 10.6992 16.581 10.9126 16.1944 11.3392C15.8077 11.7659 15.6144 12.2326 15.6144 12.7392C15.6144 12.9926 15.6677 13.2459 15.7744 13.4992C15.9744 13.9792 16.2544 14.4326 16.6144 14.8592C16.9744 15.2859 17.3277 15.7259 17.6744 16.1792C18.0344 16.6192 18.3144 17.0992 18.5144 17.6192C18.6477 17.9659 18.7144 18.3192 18.7144 18.6792C18.7144 19.1992 18.581 19.6726 18.3144 20.0992C18.061 20.5259 17.7144 20.8992 17.2744 21.2192C16.8477 21.5259 16.381 21.7659 15.8744 21.9392C15.3677 22.1126 14.861 22.1992 14.3544 22.1992Z"/>
</mask>
<path d="M26 13.5C26 20.4036 20.4036 26 13.5 26C6.59644 26 1 20.4036 1 13.5C1 6.59644 6.59644 1 13.5 1C20.4036 1 26 6.59644 26 13.5Z" fill="#252423"/>
<path d="M8.9622 16.43C8.49554 16.43 8.0022 16.3567 7.4822 16.21C6.97554 16.0767 6.5222 15.85 6.1222 15.53C5.73554 15.21 5.47554 14.7833 5.3422 14.25C5.32887 14.1833 5.31554 14.11 5.3022 14.03C5.3022 13.95 5.3022 13.87 5.3022 13.79C5.3022 13.3767 5.39554 12.9767 5.5822 12.59C5.76887 12.2033 5.99554 11.91 6.2622 11.71H6.2822C6.30887 11.71 6.3422 11.7433 6.3822 11.81C6.43554 11.8633 6.43554 11.9033 6.3822 11.93C6.24887 12.0633 6.14887 12.2167 6.0822 12.39C6.02887 12.55 6.0022 12.7233 6.0022 12.91C6.0022 13.1633 6.0422 13.4233 6.1222 13.69C6.21554 13.9433 6.32887 14.1633 6.4622 14.35C6.79554 14.8167 7.25554 15.19 7.8422 15.47C8.4422 15.7367 9.02887 15.87 9.6022 15.87C10.3889 15.87 10.9955 15.6367 11.4222 15.17C11.8622 14.7033 12.0822 14.13 12.0822 13.45C12.0822 13.0367 12.0022 12.6233 11.8422 12.21C11.6289 11.6367 11.3422 11.0767 10.9822 10.53C10.6355 9.97 10.3155 9.42333 10.0222 8.89C9.76887 8.41 9.6422 7.92333 9.6422 7.43C9.6422 6.91 9.8022 6.41 10.1222 5.93C10.4422 5.50333 10.8622 5.16333 11.3822 4.91C11.9155 4.64333 12.4555 4.51 13.0022 4.51C13.3755 4.51 13.7355 4.57667 14.0822 4.71C14.4289 4.84333 14.7422 5.06333 15.0222 5.37C15.1022 5.49 15.1422 5.64333 15.1422 5.83C15.1422 6.09667 15.0889 6.30333 14.9822 6.45C14.8622 6.62333 14.7289 6.85 14.5822 7.13C14.4355 7.41 14.3489 7.60333 14.3222 7.71C14.2955 7.72333 14.2289 7.75 14.1222 7.79C14.0289 7.81667 13.9689 7.81 13.9422 7.77C13.9955 7.66333 14.0689 7.47 14.1622 7.19C14.2555 6.91 14.3022 6.65667 14.3022 6.43C14.3022 6.28333 14.2955 6.12333 14.2822 5.95C14.2822 5.76333 14.1955 5.60333 14.0222 5.47C13.8622 5.32333 13.6555 5.19667 13.4022 5.09C13.1489 4.98333 12.8422 4.93 12.4822 4.93C11.7489 4.93 11.1889 5.14333 10.8022 5.57C10.4155 5.99667 10.2222 6.46333 10.2222 6.97C10.2222 7.22333 10.2755 7.47667 10.3822 7.73C10.5822 8.21 10.8622 8.66333 11.2222 9.09C11.5822 9.51667 11.9355 9.95667 12.2822 10.41C12.6422 10.85 12.9222 11.33 13.1222 11.85C13.2555 12.1967 13.3222 12.55 13.3222 12.91C13.3222 13.43 13.1889 13.9033 12.9222 14.33C12.6689 14.7567 12.3222 15.13 11.8822 15.45C11.4555 15.7567 10.9889 15.9967 10.4822 16.17C9.97554 16.3433 9.46887 16.43 8.9622 16.43Z" fill="#C2983D"/>
<path d="M14.3544 22.1992C13.8877 22.1992 13.3944 22.1259 12.8744 21.9792C12.3677 21.8459 11.9144 21.6192 11.5144 21.2992C11.1277 20.9792 10.8677 20.5526 10.7344 20.0192C10.721 19.9526 10.7077 19.8792 10.6944 19.7992C10.6944 19.7192 10.6944 19.6392 10.6944 19.5592C10.6944 19.1459 10.7877 18.7459 10.9744 18.3592C11.161 17.9726 11.3877 17.6792 11.6544 17.4792H11.6744C11.701 17.4792 11.7344 17.5126 11.7744 17.5792C11.8277 17.6326 11.8277 17.6726 11.7744 17.6992C11.641 17.8326 11.541 17.9859 11.4744 18.1592C11.421 18.3192 11.3944 18.4926 11.3944 18.6792C11.3944 18.9326 11.4344 19.1926 11.5144 19.4592C11.6077 19.7126 11.721 19.9326 11.8544 20.1192C12.1877 20.5859 12.6477 20.9592 13.2344 21.2392C13.8344 21.5059 14.421 21.6392 14.9944 21.6392C15.781 21.6392 16.3877 21.4059 16.8144 20.9392C17.2544 20.4726 17.4744 19.8992 17.4744 19.2192C17.4744 18.8059 17.3944 18.3926 17.2344 17.9792C17.021 17.4059 16.7344 16.8459 16.3744 16.2992C16.0277 15.7392 15.7077 15.1926 15.4144 14.6592C15.161 14.1792 15.0344 13.6926 15.0344 13.1992C15.0344 12.6792 15.1944 12.1792 15.5144 11.6992C15.8344 11.2726 16.2544 10.9326 16.7744 10.6792C17.3077 10.4126 17.8477 10.2792 18.3944 10.2792C18.7677 10.2792 19.1277 10.3459 19.4744 10.4792C19.821 10.6126 20.1344 10.8326 20.4144 11.1392C20.4944 11.2592 20.5344 11.4126 20.5344 11.5992C20.5344 11.8659 20.481 12.0726 20.3744 12.2192C20.2544 12.3926 20.121 12.6192 19.9744 12.8992C19.8277 13.1792 19.741 13.3726 19.7144 13.4792C19.6877 13.4926 19.621 13.5192 19.5144 13.5592C19.421 13.5859 19.361 13.5792 19.3344 13.5392C19.3877 13.4326 19.461 13.2392 19.5544 12.9592C19.6477 12.6792 19.6944 12.4259 19.6944 12.1992C19.6944 12.0526 19.6877 11.8926 19.6744 11.7192C19.6744 11.5326 19.5877 11.3726 19.4144 11.2392C19.2544 11.0926 19.0477 10.9659 18.7944 10.8592C18.541 10.7526 18.2344 10.6992 17.8744 10.6992C17.141 10.6992 16.581 10.9126 16.1944 11.3392C15.8077 11.7659 15.6144 12.2326 15.6144 12.7392C15.6144 12.9926 15.6677 13.2459 15.7744 13.4992C15.9744 13.9792 16.2544 14.4326 16.6144 14.8592C16.9744 15.2859 17.3277 15.7259 17.6744 16.1792C18.0344 16.6192 18.3144 17.0992 18.5144 17.6192C18.6477 17.9659 18.7144 18.3192 18.7144 18.6792C18.7144 19.1992 18.581 19.6726 18.3144 20.0992C18.061 20.5259 17.7144 20.8992 17.2744 21.2192C16.8477 21.5259 16.381 21.7659 15.8744 21.9392C15.3677 22.1126 14.861 22.1992 14.3544 22.1992Z" fill="#C2983D"/>
<path d="M26 13.5C26 20.4036 20.4036 26 13.5 26C6.59644 26 1 20.4036 1 13.5C1 6.59644 6.59644 1 13.5 1C20.4036 1 26 6.59644 26 13.5Z" stroke="black" stroke-width="2" mask="url(#path-1-outside-1_55_7)"/>
<path d="M8.9622 16.43C8.49554 16.43 8.0022 16.3567 7.4822 16.21C6.97554 16.0767 6.5222 15.85 6.1222 15.53C5.73554 15.21 5.47554 14.7833 5.3422 14.25C5.32887 14.1833 5.31554 14.11 5.3022 14.03C5.3022 13.95 5.3022 13.87 5.3022 13.79C5.3022 13.3767 5.39554 12.9767 5.5822 12.59C5.76887 12.2033 5.99554 11.91 6.2622 11.71H6.2822C6.30887 11.71 6.3422 11.7433 6.3822 11.81C6.43554 11.8633 6.43554 11.9033 6.3822 11.93C6.24887 12.0633 6.14887 12.2167 6.0822 12.39C6.02887 12.55 6.0022 12.7233 6.0022 12.91C6.0022 13.1633 6.0422 13.4233 6.1222 13.69C6.21554 13.9433 6.32887 14.1633 6.4622 14.35C6.79554 14.8167 7.25554 15.19 7.8422 15.47C8.4422 15.7367 9.02887 15.87 9.6022 15.87C10.3889 15.87 10.9955 15.6367 11.4222 15.17C11.8622 14.7033 12.0822 14.13 12.0822 13.45C12.0822 13.0367 12.0022 12.6233 11.8422 12.21C11.6289 11.6367 11.3422 11.0767 10.9822 10.53C10.6355 9.97 10.3155 9.42333 10.0222 8.89C9.76887 8.41 9.6422 7.92333 9.6422 7.43C9.6422 6.91 9.8022 6.41 10.1222 5.93C10.4422 5.50333 10.8622 5.16333 11.3822 4.91C11.9155 4.64333 12.4555 4.51 13.0022 4.51C13.3755 4.51 13.7355 4.57667 14.0822 4.71C14.4289 4.84333 14.7422 5.06333 15.0222 5.37C15.1022 5.49 15.1422 5.64333 15.1422 5.83C15.1422 6.09667 15.0889 6.30333 14.9822 6.45C14.8622 6.62333 14.7289 6.85 14.5822 7.13C14.4355 7.41 14.3489 7.60333 14.3222 7.71C14.2955 7.72333 14.2289 7.75 14.1222 7.79C14.0289 7.81667 13.9689 7.81 13.9422 7.77C13.9955 7.66333 14.0689 7.47 14.1622 7.19C14.2555 6.91 14.3022 6.65667 14.3022 6.43C14.3022 6.28333 14.2955 6.12333 14.2822 5.95C14.2822 5.76333 14.1955 5.60333 14.0222 5.47C13.8622 5.32333 13.6555 5.19667 13.4022 5.09C13.1489 4.98333 12.8422 4.93 12.4822 4.93C11.7489 4.93 11.1889 5.14333 10.8022 5.57C10.4155 5.99667 10.2222 6.46333 10.2222 6.97C10.2222 7.22333 10.2755 7.47667 10.3822 7.73C10.5822 8.21 10.8622 8.66333 11.2222 9.09C11.5822 9.51667 11.9355 9.95667 12.2822 10.41C12.6422 10.85 12.9222 11.33 13.1222 11.85C13.2555 12.1967 13.3222 12.55 13.3222 12.91C13.3222 13.43 13.1889 13.9033 12.9222 14.33C12.6689 14.7567 12.3222 15.13 11.8822 15.45C11.4555 15.7567 10.9889 15.9967 10.4822 16.17C9.97554 16.3433 9.46887 16.43 8.9622 16.43Z" stroke="black" stroke-width="2" mask="url(#path-1-outside-1_55_7)"/>
<path d="M14.3544 22.1992C13.8877 22.1992 13.3944 22.1259 12.8744 21.9792C12.3677 21.8459 11.9144 21.6192 11.5144 21.2992C11.1277 20.9792 10.8677 20.5526 10.7344 20.0192C10.721 19.9526 10.7077 19.8792 10.6944 19.7992C10.6944 19.7192 10.6944 19.6392 10.6944 19.5592C10.6944 19.1459 10.7877 18.7459 10.9744 18.3592C11.161 17.9726 11.3877 17.6792 11.6544 17.4792H11.6744C11.701 17.4792 11.7344 17.5126 11.7744 17.5792C11.8277 17.6326 11.8277 17.6726 11.7744 17.6992C11.641 17.8326 11.541 17.9859 11.4744 18.1592C11.421 18.3192 11.3944 18.4926 11.3944 18.6792C11.3944 18.9326 11.4344 19.1926 11.5144 19.4592C11.6077 19.7126 11.721 19.9326 11.8544 20.1192C12.1877 20.5859 12.6477 20.9592 13.2344 21.2392C13.8344 21.5059 14.421 21.6392 14.9944 21.6392C15.781 21.6392 16.3877 21.4059 16.8144 20.9392C17.2544 20.4726 17.4744 19.8992 17.4744 19.2192C17.4744 18.8059 17.3944 18.3926 17.2344 17.9792C17.021 17.4059 16.7344 16.8459 16.3744 16.2992C16.0277 15.7392 15.7077 15.1926 15.4144 14.6592C15.161 14.1792 15.0344 13.6926 15.0344 13.1992C15.0344 12.6792 15.1944 12.1792 15.5144 11.6992C15.8344 11.2726 16.2544 10.9326 16.7744 10.6792C17.3077 10.4126 17.8477 10.2792 18.3944 10.2792C18.7677 10.2792 19.1277 10.3459 19.4744 10.4792C19.821 10.6126 20.1344 10.8326 20.4144 11.1392C20.4944 11.2592 20.5344 11.4126 20.5344 11.5992C20.5344 11.8659 20.481 12.0726 20.3744 12.2192C20.2544 12.3926 20.121 12.6192 19.9744 12.8992C19.8277 13.1792 19.741 13.3726 19.7144 13.4792C19.6877 13.4926 19.621 13.5192 19.5144 13.5592C19.421 13.5859 19.361 13.5792 19.3344 13.5392C19.3877 13.4326 19.461 13.2392 19.5544 12.9592C19.6477 12.6792 19.6944 12.4259 19.6944 12.1992C19.6944 12.0526 19.6877 11.8926 19.6744 11.7192C19.6744 11.5326 19.5877 11.3726 19.4144 11.2392C19.2544 11.0926 19.0477 10.9659 18.7944 10.8592C18.541 10.7526 18.2344 10.6992 17.8744 10.6992C17.141 10.6992 16.581 10.9126 16.1944 11.3392C15.8077 11.7659 15.6144 12.2326 15.6144 12.7392C15.6144 12.9926 15.6677 13.2459 15.7744 13.4992C15.9744 13.9792 16.2544 14.4326 16.6144 14.8592C16.9744 15.2859 17.3277 15.7259 17.6744 16.1792C18.0344 16.6192 18.3144 17.0992 18.5144 17.6192C18.6477 17.9659 18.7144 18.3192 18.7144 18.6792C18.7144 19.1992 18.581 19.6726 18.3144 20.0992C18.061 20.5259 17.7144 20.8992 17.2744 21.2192C16.8477 21.5259 16.381 21.7659 15.8744 21.9392C15.3677 22.1126 14.861 22.1992 14.3544 22.1992Z" stroke="black" stroke-width="2" mask="url(#path-1-outside-1_55_7)"/>
</svg>
